<svg width="375" height="237" viewBox="0 0 375 237" fill="none" xmlns="http://www.w3.org/2000/svg">
<path d="M0 0H375V197C375 219.091 357.091 237 335 237H40C17.9086 237 0 219.091 0 197V0Z" fill="#6CD15C"/>
<path d="M63.9074 35.4031H44.0474V40.7071H63.9074V35.4031Z" fill="#EBEBEB"/>
<path d="M52.83 28.7148H32.97V34.0189H52.83V28.7148Z" fill="#EBEBEB"/>
<path d="M74.985 28.7148H55.125V34.0189H74.985V28.7148Z" fill="#EBEBEB"/>
<path d="M330.953 28.7148H311.093V34.0189H330.953V28.7148Z" fill="#EBEBEB"/>
<path d="M330.953 171.839H311.093V177.143H330.953V171.839Z" fill="#EBEBEB"/>
<path d="M342.03 165.151H322.17V170.455H342.03V165.151Z" fill="#EBEBEB"/>
<path d="M52.83 171.834H32.97V177.139H52.83V171.834Z" fill="#EBEBEB"/>
<path d="M87.6901 114.03H107.55V108.726H87.6901V114.03Z" fill="#EBEBEB"/>
<path d="M98.7674 120.718H118.627V115.414H98.7674V120.718Z" fill="#EBEBEB"/>
<path d="M63.3374 0H62.4524V51.7371H63.3374V0Z" fill="#C7C7C7"/>
<path d="M88.7175 67.4691L86.64 70.3558H39.1425L37.0725 67.4691L57.2925 58.6243H68.4975L88.7175 67.4691Z" fill="#EBEBEB"/>
<path d="M69.8999 50.1018L68.4974 58.6243H57.2924L55.8899 50.1018H69.8999Z" fill="#DBDBDB"/>
<path d="M88.7175 67.4739L86.64 70.3558H39.1425L37.0725 67.4739H88.7175Z" fill="#DBDBDB"/>
<path d="M125.79 0H124.905V42.4277H125.79V0Z" fill="#C7C7C7"/>
<path d="M151.17 58.1598L149.092 61.0464H101.595L99.5249 58.1598L119.745 49.3149H130.95L151.17 58.1598Z" fill="#EBEBEB"/>
<path d="M132.352 40.7925L130.95 49.315H119.745L118.343 40.7925H132.352Z" fill="#DBDBDB"/>
<path d="M151.17 58.1646L149.092 61.0465H101.595L99.5249 58.1646H151.17Z" fill="#DBDBDB"/>
<path d="M319.53 37.228H270.787V68.0333H319.53V37.228Z" fill="white"/>
<path d="M268.252 35.6257V69.6352H322.065V35.6257H268.252ZM319.5 68.0331H270.75V37.2231H319.5V68.0331Z" fill="#DBDBDB"/>
<path d="M316.027 62.0656V51.4148H278.04V62.0656H316.027Z" fill="#EBEBEB"/>
<path d="M304.89 58.7808V46.4805H285.427V58.7808H304.89Z" fill="#C7C7C7"/>
<path d="M324.142 35.6257H322.065V69.6352H324.142V35.6257Z" fill="#C7C7C7"/>
<path d="M319.53 80.9688H270.787V111.774H319.53V80.9688Z" fill="white"/>
<path d="M291.893 85.8982H279.165V109.134H291.893V85.8982Z" fill="#C7C7C7"/>
<path d="M268.252 79.3665V113.376H322.065V79.3665H268.252ZM319.5 111.774H270.75V80.9638H319.5V111.774Z" fill="#DBDBDB"/>
<path d="M304.89 90.2212H285.427V102.521H304.89V90.2212Z" fill="#EBEBEB"/>
<path d="M324.142 79.3665H322.065V113.376H324.142V79.3665Z" fill="#C7C7C7"/>
<path d="M319.53 124.709H270.787V155.515H319.53V124.709Z" fill="white"/>
<path d="M302.94 128.909H276.195V139.015H302.94V128.909Z" fill="#EBEBEB"/>
<path d="M268.252 123.107V157.117H322.065V123.107H268.252ZM319.5 155.515H270.75V124.705H319.5V155.515Z" fill="#DBDBDB"/>
<path d="M304.89 133.962H285.427V146.262H304.89V133.962Z" fill="#C7C7C7"/>
<path d="M324.142 123.107H322.065V157.117H324.142V123.107Z" fill="#C7C7C7"/>
<path d="M246.532 218.628C296.242 218.628 336.54 215.731 336.54 212.158C336.54 208.584 296.242 205.688 246.532 205.688C196.823 205.688 156.525 208.584 156.525 212.158C156.525 215.731 196.823 218.628 246.532 218.628Z" fill="#EBEBEB"/>
<path d="M23.0024 204.768L64.1249 204.654L105.255 204.612L187.5 204.531L269.745 204.612L310.875 204.65L351.997 204.768L310.875 204.882L269.745 204.924L187.5 205.005L105.255 204.924L64.1249 204.882L23.0024 204.768Z" fill="#263238"/>
<path d="M203.34 204.768H138.165C136.11 190.804 134.047 176.494 132.412 165.085C132.36 164.706 132.3 164.326 132.247 163.952C130.402 151.045 129.15 142.124 129.15 142.124H190.65C190.654 142.164 190.654 142.203 190.65 142.243C191.107 144.357 197.37 175.205 203.34 204.768Z" fill="#37474F"/>
<path d="M148.042 204.768H147C144.157 189.648 141.847 174.498 139.747 159.33C139.627 158.424 139.502 157.515 139.372 156.605C138.952 153.491 138.532 150.362 138.127 147.243C138.127 147.149 138.345 147.149 138.367 147.243C138.827 150.008 139.272 152.767 139.702 155.52C139.706 155.527 139.706 155.535 139.702 155.543C139.852 156.548 140.017 157.548 140.175 158.558C141.847 169.024 143.505 179.48 145.32 189.932C146.185 194.884 147.092 199.829 148.042 204.768Z" fill="#263238"/>
<path d="M181.77 142.124L173.52 176.594L173.227 177.76L172.477 180.864L172.417 181.082L172.222 181.917L166.732 204.768H131.722C128.13 191.97 124.455 178.85 121.41 167.962C121.342 167.716 121.275 167.488 121.207 167.242C117.105 152.59 114.172 142.12 114.172 142.12L181.77 142.124Z" fill="#263238"/>
<path d="M190.71 142.091C190.71 142.091 190.71 142.138 190.672 142.243C190.185 144.253 184.89 165.805 176.092 179.949C176.032 180.068 175.965 180.177 175.882 180.3C175.882 180.3 174.645 180.542 172.41 181.101C171.54 181.319 170.505 181.575 169.335 181.907L168.06 182.267C165.48 182.997 162.352 183.955 158.782 185.178C158.437 185.291 158.1 185.41 157.762 185.528C157.762 185.528 157.762 185.619 157.762 185.784C157.582 187.268 156.667 194.88 155.512 204.744H94.1174C98.8424 173.968 104.032 142.067 104.032 142.067L190.71 142.091Z" fill="#37474F"/>
<path d="M110.902 148.087C109.155 162.525 107.482 176.963 105.652 191.382C105.082 195.844 104.497 200.306 103.897 204.768H102.997C105.592 185.878 108.06 166.987 110.4 148.097C110.415 147.888 110.925 147.888 110.902 148.087Z" fill="#263238"/>
<path d="M178.987 179.286C171.64 180.976 164.538 183.066 157.762 185.533C157.733 185.541 157.707 185.553 157.685 185.567C157.663 185.582 157.646 185.599 157.635 185.618C157.623 185.636 157.618 185.656 157.618 185.676C157.619 185.696 157.626 185.716 157.639 185.735C157.652 185.753 157.67 185.77 157.693 185.783C157.716 185.797 157.743 185.808 157.772 185.815C157.802 185.823 157.834 185.826 157.865 185.826C157.897 185.825 157.928 185.821 157.957 185.813C165.105 183.869 172.395 182.021 179.37 179.826C179.483 179.794 179.572 179.735 179.616 179.662C179.661 179.588 179.657 179.507 179.606 179.435C179.555 179.363 179.462 179.307 179.346 179.279C179.23 179.251 179.101 179.254 178.987 179.286Z" fill="#263238"/>
<path d="M181.26 148.277C181.26 148.12 180.802 148.087 180.81 148.277C180.862 153.642 180.322 158.359 179.61 163.374C179.272 165.701 176.31 178.565 169.928 177.627C168.855 177.47 168.308 176.807 168.143 175.788C167.94 174.565 168.668 173.062 168.99 171.844C169.74 169.147 170.272 166.445 170.632 163.729C171.377 158.664 171.291 153.563 170.377 148.509C170.368 148.479 170.343 148.451 170.305 148.432C170.267 148.412 170.22 148.401 170.171 148.401C170.122 148.401 170.075 148.412 170.037 148.432C170 148.451 169.974 148.479 169.965 148.509C169.965 155.538 169.68 162.554 168.015 169.517C167.22 172.863 164.55 177.902 170.092 178.414C175.635 178.926 179.377 170.503 180.067 168.194C181.987 161.748 182.062 154.794 181.26 148.277Z" fill="#263238"/>
<path d="M170.093 177.954C169.526 178.823 169.047 179.715 168.66 180.622C168.247 181.323 168.043 182.065 168.06 182.812C168.069 182.842 168.092 182.87 168.126 182.891C168.16 182.913 168.203 182.928 168.249 182.934C168.296 182.941 168.345 182.939 168.39 182.928C168.435 182.917 168.474 182.898 168.503 182.874C169.17 182.215 169.676 181.496 170.003 180.741C170.49 179.916 171 179.096 171.45 178.262C171.461 178.159 171.418 178.057 171.329 177.971C171.24 177.885 171.109 177.819 170.955 177.784C170.802 177.749 170.635 177.747 170.479 177.778C170.323 177.808 170.188 177.87 170.093 177.954Z" fill="#263238"/>
<path d="M141.195 152.486C141.207 151.925 141.116 151.365 140.925 150.818C140.918 150.799 140.901 150.782 140.877 150.77C140.853 150.759 140.824 150.752 140.794 150.752C140.763 150.752 140.734 150.759 140.71 150.77C140.686 150.782 140.67 150.799 140.662 150.818C140.484 151.283 140.386 151.76 140.37 152.24C140.28 152.794 140.16 153.344 140.07 153.899C139.879 155.031 139.565 156.154 139.132 157.259C138.327 159.35 136.642 161.264 134.257 162.8C131.886 164.272 129.084 165.437 126.007 166.232C122.58 167.152 118.965 167.493 115.425 168.152C115.275 168.175 115.32 168.313 115.425 168.318C119.356 168.311 123.249 167.829 126.892 166.896C130.111 166.131 133.042 164.949 135.495 163.426C137.957 161.855 139.69 159.888 140.505 157.738C140.915 156.632 141.146 155.503 141.195 154.368C141.254 153.741 141.254 153.113 141.195 152.486V152.486Z" fill="#263238"/>
<path d="M164.347 92.4302C169.29 99.4264 205.267 131.839 234.18 135.754C239.055 136.413 254.182 139.437 262.935 131.535C274.762 120.865 282.307 100.431 280.65 89.5341C279.277 80.5281 240.315 87.2826 238.02 92.4113C236.287 96.2933 233.205 109.03 231.945 108.826C223.755 107.489 199.357 94.1319 175.042 85.908C163.77 82.0686 160.545 87.0219 164.347 92.4302Z" fill="#AD6359"/>
<path d="M229.553 114.362C229.721 113.565 229.954 112.774 230.25 111.992C230.87 110.485 231.709 109.017 232.755 107.608C232.8 107.546 232.98 107.584 232.943 107.655C232.193 109.11 231.645 110.622 231.03 112.106C230.73 112.845 230.445 113.58 230.183 114.324C229.92 115.068 229.59 115.841 229.388 116.609C229.388 116.652 229.253 116.647 229.26 116.609C229.343 115.846 229.388 115.106 229.553 114.362Z" fill="#263238"/>
<path d="M280.83 91.1978C280.83 91.1978 280.185 79.3952 273.487 71.5457C268.86 66.1184 256.702 55.0221 227.61 54.3111C220.71 54.1452 210.682 56.9987 221.797 59.8569C229.695 61.8904 235.672 61.6723 239.925 63.3835C239.925 63.3835 227.857 67.9718 227.857 72.3468C227.857 74.3044 227.4 78.542 228.495 82.6847C228.495 82.6847 230.647 83.8745 232.56 83.8223C232.56 83.8223 232.77 87.9177 240.06 92.1458L280.83 91.1978Z" fill="#AD6359"/>
<path d="M192 66.5734C188.46 68.0808 186.525 71.6405 189.375 75.0249C192.225 78.4092 199.44 77.9779 202.875 76.4943C206.31 75.0107 209.213 71.3087 206.28 68.1519C203.798 65.4121 198.233 63.9333 192 66.5734Z" fill="#FF8473"/>
<path opacity="0.1" d="M192 66.5734C188.46 68.0808 186.525 71.6405 189.375 75.0249C192.225 78.4092 199.44 77.9779 202.875 76.4943C206.31 75.0107 209.213 71.3087 206.28 68.1519C203.798 65.4121 198.233 63.9333 192 66.5734Z" fill="black"/>
<path d="M193.08 67.4598C190.192 68.6874 188.617 71.5978 190.942 74.3612C193.267 77.1246 199.192 76.7739 201.982 75.5604C204.772 74.347 207.165 71.3276 204.772 68.7443C202.702 66.507 198.157 65.3031 193.08 67.4598Z" fill="#FF8473"/>
<path d="M199.125 68.9956C199.38 69.1236 200.295 68.6401 199.792 68.4126C199.29 68.1851 198.795 68.8344 199.125 68.9956Z" fill="white"/>
<path d="M201.263 72.1666C201.135 72.3515 202.102 72.7923 202.327 72.4273C202.552 72.0623 201.435 71.9201 201.263 72.1666Z" fill="white"/>
<path d="M203.407 70.9343C203.46 71.1334 204.652 71.1666 204.525 70.7826C204.397 70.3987 203.34 70.6689 203.407 70.9343Z" fill="white"/>
<path d="M199.065 67.6067C199.38 67.5735 199.44 66.8246 198.832 66.9004C198.225 66.9763 198.645 67.6493 199.065 67.6067Z" fill="white"/>
<path d="M193.357 70.2327C193.44 70.0383 192.375 69.6971 192.24 70.081C192.105 70.4649 193.245 70.4934 193.357 70.2327Z" fill="white"/>
<path d="M195.907 74.4181C195.645 74.2996 194.767 74.8068 195.285 75.0201C195.802 75.2334 196.252 74.5793 195.907 74.4181Z" fill="white"/>
<path d="M198 74.1669C197.685 74.1337 197.25 74.8352 197.865 74.8826C198.48 74.93 198.42 74.2096 198 74.1669Z" fill="white"/>
<path d="M195.802 71.1996C196.027 71.0574 195.367 70.427 194.955 70.7256C194.542 71.0242 195.502 71.3892 195.802 71.1996Z" fill="white"/>
<path d="M189.382 71.721C189.382 71.721 195.195 71.3134 195.96 72.0576C196.725 72.8018 192.592 76.0724 191.91 75.7832C191.227 75.4941 188.752 72.9629 189.382 71.721Z" fill="#FF8473"/>
<path opacity="0.1" d="M189.382 71.721C189.382 71.721 195.195 71.3134 195.96 72.0576C196.725 72.8018 192.592 76.0724 191.91 75.7832C191.227 75.4941 188.752 72.9629 189.382 71.721Z" fill="black"/>
<path d="M199.32 76.5938C199.32 76.5938 197.602 73.0577 198.622 72.4462C199.642 71.8348 205.485 73.7877 205.17 74.2664C204.855 74.7452 201.367 76.7502 199.32 76.5938Z" fill="#FF8473"/>
<path opacity="0.1" d="M199.32 76.5938C199.32 76.5938 197.602 73.0577 198.622 72.4462C199.642 71.8348 205.485 73.7877 205.17 74.2664C204.855 74.7452 201.367 76.7502 199.32 76.5938Z" fill="black"/>
<path d="M206.722 70.081C206.722 70.081 201.038 70.9531 200.13 70.2753C199.223 69.5975 202.658 66.0093 203.393 66.2558C204.128 66.5022 207.09 68.7964 206.722 70.081Z" fill="#FF8473"/>
<path opacity="0.1" d="M206.722 70.081C206.722 70.081 201.038 70.9531 200.13 70.2753C199.223 69.5975 202.658 66.0093 203.393 66.2558C204.128 66.5022 207.09 68.7964 206.722 70.081Z" fill="black"/>
<path d="M197.085 65.7818C197.085 65.7818 198.472 69.3748 197.4 69.9483C196.327 70.5218 190.65 68.3509 191.032 67.8864C191.415 67.4219 195.06 65.5448 197.085 65.7818Z" fill="#FF8473"/>
<path opacity="0.1" d="M197.085 65.7818C197.085 65.7818 198.472 69.3748 197.4 69.9483C196.327 70.5218 190.65 68.3509 191.032 67.8864C191.415 67.4219 195.06 65.5448 197.085 65.7818Z" fill="black"/>
<path d="M209.032 71.8063C206.295 72.4652 193.192 74.1147 193.192 74.1147L193.447 73.7213L207.495 70.9579C207.596 70.9333 207.679 70.8853 207.726 70.8237C207.773 70.7622 207.782 70.6915 207.75 70.6261C207.734 70.5917 207.707 70.5597 207.671 70.5321C207.634 70.5045 207.59 70.4818 207.539 70.4654C207.489 70.449 207.434 70.4393 207.377 70.4368C207.32 70.4342 207.264 70.439 207.21 70.4507L194.077 72.7259L194.49 72.0955L208.86 69.1282C208.921 69.1213 208.978 69.1064 209.029 69.0844C209.08 69.0624 209.123 69.0338 209.155 69.0006C209.187 68.9673 209.207 68.9301 209.215 68.8915C209.222 68.8529 209.217 68.8136 209.199 68.7764C209.18 68.7392 209.15 68.7049 209.109 68.6757C209.068 68.6465 209.018 68.6231 208.962 68.6071C208.906 68.5911 208.845 68.5828 208.784 68.5827C208.722 68.5827 208.661 68.5909 208.605 68.6068L195.157 71.0811L195.555 70.4791L210.255 67.2844C210.31 67.2747 210.361 67.258 210.406 67.2353C210.45 67.2127 210.487 67.1845 210.514 67.1525C210.54 67.1206 210.556 67.0855 210.561 67.0495C210.565 67.0135 210.558 66.9773 210.54 66.9431C210.525 66.9089 210.498 66.877 210.463 66.8494C210.427 66.8219 210.383 66.7992 210.334 66.7827C210.284 66.7663 210.229 66.7565 210.173 66.7539C210.117 66.7513 210.061 66.756 210.007 66.7677L196.207 69.4742L196.545 68.9623C196.545 68.9623 210.375 65.5874 212.01 65.3884C214.957 65.0234 213.18 70.8109 209.032 71.8063Z" fill="#455A64"/>
<path d="M212.077 67.0189C213.997 66.4643 221.88 64.2697 222.81 64.0421C223.89 63.7767 262.087 54.3868 263.61 54.3583C265.132 54.3299 264.442 57.6337 263.565 58.3305C262.687 59.0272 226.5 65.3267 222.855 66.2368C219.037 67.1848 211.86 69.0808 211.86 69.0808L212.077 67.0189Z" fill="#455A64"/>
<path d="M271.395 70.9342C267.248 69.0382 258.338 65.1467 249.293 63.554C239.25 61.786 219.15 60.0938 217.163 64.7912C215.7 68.2371 223.29 69.3131 223.29 69.3131C223.29 69.3131 214.748 69.716 214.508 73.0103C214.29 76.0155 220.23 76.6222 220.23 76.6222C220.23 76.6222 215.115 77.4327 215.79 80.3526C216.6 83.8602 227.183 81.585 232.86 84.6944C234.135 85.3912 271.395 70.9342 271.395 70.9342Z" fill="#AD6359"/>
<path d="M248.107 70.574C243.75 69.2041 232.567 67.7016 223.44 69.2041C223.23 69.2373 223.162 69.3558 223.357 69.3511C231.658 69.1373 239.97 69.5639 248.107 70.6214C248.137 70.6261 248.16 70.5882 248.107 70.574Z" fill="#263238"/>
<path d="M244.995 76.9302C241.035 75.9822 229.403 74.7688 220.245 76.5036C220.035 76.5415 219.983 76.66 220.178 76.6505C228.439 76.1697 236.759 76.2826 244.98 76.9871C245.025 76.9965 245.04 76.9397 244.995 76.9302Z" fill="#263238"/>
<path d="M189.15 115.945L227.25 103.095C227.25 103.095 189.487 88.5528 172.065 84.3721C153.907 79.9971 147.037 83.2156 163.387 95.7766C179.49 108.129 189.15 115.945 189.15 115.945Z" fill="#FF8473"/>
<path d="M224.122 101.91C223.394 102.032 222.682 102.191 221.992 102.384C220.969 102.664 220.012 103.032 219.15 103.479C220.251 103.375 221.324 103.174 222.337 102.882C223.13 102.666 223.885 102.398 224.587 102.081C224.43 102.033 224.25 101.972 224.122 101.91ZM183.982 105.498C182.958 105.774 182.003 106.143 181.147 106.593C182.247 106.488 183.317 106.285 184.327 105.991C185.354 105.717 186.311 105.35 187.17 104.901C186.067 105 184.993 105.202 183.982 105.498V105.498ZM202.027 107.66C201.59 107.014 201.01 106.41 200.302 105.868C200.464 106.565 200.782 107.243 201.247 107.883C201.682 108.528 202.263 109.13 202.972 109.67C202.813 108.974 202.495 108.297 202.027 107.66V107.66ZM169.5 97.2887C169.057 96.6448 168.474 96.0433 167.767 95.5017C167.933 96.1968 168.253 96.8735 168.72 97.5115C169.152 98.1591 169.734 98.7629 170.445 99.3032C170.283 98.6067 169.965 97.9283 169.5 97.2887V97.2887ZM160.5 87.4105C159.467 87.1553 158.38 86.9957 157.275 86.9365C158.168 87.3556 159.15 87.6923 160.192 87.9367C161.227 88.1892 162.313 88.3487 163.417 88.4107C162.525 87.9916 161.542 87.6549 160.5 87.4105V87.4105ZM186.697 94.5205C185.663 94.2573 184.575 94.0897 183.465 94.0228C184.359 94.4442 185.344 94.7826 186.39 95.0277C187.425 95.2802 188.51 95.4398 189.615 95.5017C188.74 95.083 187.775 94.7447 186.75 94.4968L186.697 94.5205ZM177.435 85.7942C177.037 86.4238 176.784 87.0862 176.685 87.7613C177.316 87.229 177.822 86.6414 178.185 86.017L177.435 85.7942ZM203.4 98.232C203 98.8859 202.748 99.5719 202.65 100.27C203.959 99.1281 204.773 97.79 205.012 96.3881C204.341 96.9467 203.798 97.5627 203.4 98.2177V98.232Z" fill="white"/>
<path d="M188.25 110.916C189.097 110.546 190.042 110.248 190.935 109.925C191.827 109.603 192.78 109.266 193.702 108.935C195.577 108.266 197.452 107.617 199.357 106.972C203.107 105.688 206.91 104.389 210.727 103.147C211.777 102.801 212.827 102.465 213.892 102.137C214.957 101.81 216.142 101.502 217.282 101.161C217.295 101.16 217.308 101.162 217.319 101.166C217.33 101.17 217.338 101.176 217.343 101.184C217.348 101.191 217.349 101.199 217.347 101.207C217.344 101.215 217.337 101.222 217.327 101.227C216.412 101.564 215.527 101.953 214.612 102.289C213.697 102.626 212.715 102.981 211.762 103.313C209.882 103.967 207.99 104.61 206.085 105.242C202.335 106.494 198.585 107.754 194.835 108.954L191.625 109.968C190.522 110.319 189.427 110.712 188.272 110.997C188.25 111.011 188.16 110.959 188.25 110.916Z" fill="#263238"/>
<path d="M163.387 95.7482C179.49 108.124 189.15 115.936 189.15 115.936L201.322 111.831L155.572 83.1919C152.415 84.7229 154.357 88.8135 163.387 95.7482Z" fill="#263238"/>
<path d="M197.827 163.17L96.8474 167.199C96.8474 167.199 106.2 105.702 141.337 83.3814C145.68 80.6274 156.112 80.7981 163.087 82.6561C165.585 83.315 175.027 90.643 178.222 97.8241C181.417 105.005 198.075 162.942 197.827 163.17Z" fill="#FF8473"/>
<path d="M131.43 101.436C130.406 101.713 129.449 102.08 128.588 102.526C129.692 102.422 130.767 102.214 131.775 101.91C132.801 101.636 133.759 101.269 134.618 100.82C133.514 100.929 132.441 101.136 131.43 101.436V101.436ZM181.268 106.555C181.224 106.573 181.184 106.594 181.148 106.617C181.19 106.62 181.233 106.62 181.275 106.617C181.275 106.617 181.268 106.546 181.268 106.532V106.555ZM156 117.182C154.975 117.459 154.018 117.826 153.158 118.273C154.259 118.169 155.332 117.968 156.345 117.675C157.368 117.4 158.322 117.032 159.18 116.585C158.079 116.684 157.008 116.886 156 117.182V117.182ZM144.9 144.172C143.877 144.45 142.923 144.819 142.065 145.267C143.168 145.167 144.242 144.966 145.253 144.67C146.274 144.391 147.229 144.022 148.088 143.575C146.985 143.677 145.912 143.878 144.9 144.172V144.172ZM119.955 126.634C118.935 126.913 117.981 127.28 117.12 127.724C118.223 127.624 119.297 127.423 120.308 127.127C121.329 126.85 122.283 126.483 123.143 126.037C122.039 126.146 120.965 126.356 119.955 126.658V126.634ZM102.908 164.236C101.884 164.512 100.929 164.879 100.073 165.327C101.175 165.227 102.249 165.026 103.26 164.729C104.283 164.452 105.237 164.083 106.095 163.634C104.99 163.743 103.916 163.954 102.908 164.26V164.236ZM147.278 160.155C146.255 160.431 145.3 160.798 144.443 161.246C145.545 161.143 146.618 160.942 147.63 160.648C148.651 160.369 149.605 160 150.465 159.553C149.359 159.66 148.285 159.871 147.278 160.179V160.155ZM197.25 160.79C196.54 160.912 195.848 161.071 195.18 161.264C194.161 161.544 193.207 161.911 192.345 162.355C193.448 162.254 194.521 162.053 195.533 161.757C196.16 161.581 196.766 161.377 197.348 161.146C197.303 161.023 197.25 160.904 197.25 160.79ZM174.443 142.271C173.418 142.549 172.46 142.918 171.6 143.366C172.689 143.261 173.749 143.06 174.75 142.769C175.776 142.492 176.733 142.123 177.593 141.674C176.498 141.776 175.432 141.977 174.428 142.271H174.443ZM140.85 91.1456C140.412 90.4988 139.829 89.8953 139.118 89.3539C139.282 90.0486 139.6 90.7251 140.063 91.3637C140.5 92.012 141.084 92.6171 141.795 93.1601C141.636 92.4633 141.317 91.7848 140.85 91.1456ZM125.753 163.454C125.317 162.806 124.736 162.201 124.028 161.658C124.187 162.355 124.505 163.033 124.973 163.672C125.409 164.32 125.99 164.925 126.698 165.469C126.545 164.771 126.227 164.092 125.753 163.454V163.454ZM119.55 145.845C119.108 145.2 118.522 144.599 117.81 144.058C117.975 144.753 118.293 145.429 118.755 146.068C119.194 146.716 119.78 147.319 120.495 147.86C120.329 147.164 120.011 146.486 119.55 145.845V145.845ZM156.915 133.749C156.474 133.102 155.894 132.498 155.19 131.952C155.346 132.65 155.664 133.328 156.135 133.967C156.569 134.615 157.15 135.221 157.86 135.763C157.696 135.067 157.378 134.389 156.915 133.749ZM141.045 111.471C140.605 110.823 140.022 110.218 139.313 109.674C139.468 110.372 139.787 111.05 140.258 111.689C140.695 112.337 141.279 112.942 141.99 113.485C141.827 112.797 141.509 112.126 141.045 111.494V111.471ZM164.843 162.739C164.977 163.322 165.229 163.892 165.593 164.436L166.493 164.398C166.057 163.81 165.502 163.26 164.843 162.762V162.739ZM192.143 148.362C191.702 147.715 191.116 147.112 190.403 146.57C190.572 147.264 190.89 147.94 191.348 148.58C191.788 149.226 192.372 149.829 193.08 150.372C192.921 149.677 192.605 149 192.143 148.362V148.362ZM169.5 97.2887C169.057 96.6448 168.474 96.0433 167.768 95.5017C167.933 96.1968 168.253 96.8735 168.72 97.5115C169.152 98.1591 169.734 98.7628 170.445 99.3032C170.283 98.6067 169.965 97.9283 169.5 97.2887V97.2887ZM160.5 87.4105C159.467 87.1553 158.38 86.9957 157.275 86.9365C158.168 87.3556 159.15 87.6923 160.193 87.9367C161.227 88.1892 162.313 88.3487 163.418 88.4107C162.525 87.9916 161.543 87.6549 160.5 87.4105V87.4105ZM132.225 136.536C131.195 136.27 130.108 136.102 129 136.038C129.895 136.459 130.88 136.797 131.925 137.043C132.96 137.294 134.046 137.453 135.15 137.517C134.266 137.103 133.29 136.772 132.255 136.536H132.225ZM107.775 154.207C106.741 153.944 105.652 153.776 104.543 153.709C106.351 154.537 108.472 155.052 110.693 155.202C109.809 154.786 108.837 154.451 107.805 154.207H107.775ZM176.468 155.629C175.433 155.366 174.345 155.198 173.235 155.131C175.044 155.959 177.164 156.474 179.385 156.624C178.5 156.209 177.529 155.874 176.498 155.629H176.468ZM171.66 129.341C170.628 129.084 169.541 128.924 168.435 128.867C169.326 129.287 170.309 129.624 171.353 129.867C172.386 130.126 173.471 130.293 174.578 130.364C173.7 129.935 172.727 129.59 171.69 129.341H171.66ZM162.48 107.233C161.448 106.976 160.361 106.816 159.255 106.759C160.146 107.179 161.129 107.514 162.173 107.755C163.204 108.017 164.29 108.185 165.398 108.252C164.52 107.825 163.547 107.481 162.51 107.233H162.48ZM121.5 115.092C121.094 115.745 120.841 116.431 120.75 117.13C122.049 115.983 122.862 114.645 123.113 113.244C122.433 113.806 121.89 114.429 121.5 115.092V115.092ZM158.708 150.505C158.301 151.157 158.048 151.844 157.958 152.543C158.623 151.979 159.158 151.358 159.548 150.699C159.944 150.044 160.196 149.359 160.298 148.661C159.633 149.224 159.102 149.845 158.723 150.505H158.708ZM176.003 117.244C175.596 117.9 175.343 118.59 175.253 119.292C176.561 118.146 177.376 116.805 177.615 115.4C176.946 115.963 176.408 116.584 176.018 117.244H176.003ZM133.53 153.406C133.124 154.06 132.871 154.748 132.78 155.448C133.441 154.88 133.974 154.256 134.363 153.595C134.763 152.941 135.015 152.255 135.113 151.557C134.452 152.122 133.924 152.745 133.545 153.406H133.53ZM105.465 136.688C105.065 137.343 104.812 138.031 104.715 138.731C105.382 138.166 105.915 137.544 106.298 136.882C106.705 136.23 106.958 135.543 107.048 134.844C106.394 135.41 105.867 136.031 105.48 136.688H105.465ZM140.25 125.34C139.84 125.994 139.587 126.682 139.5 127.383C140.807 126.239 141.622 124.899 141.863 123.496C141.185 124.057 140.642 124.679 140.25 125.34V125.34ZM150.81 98.8813C150.415 99.5377 150.162 100.225 150.06 100.924C150.727 100.361 151.262 99.7399 151.65 99.0804C152.05 98.4249 152.302 97.7372 152.4 97.0375C151.739 97.6024 151.206 98.223 150.818 98.8813H150.81Z" fill="white"/>
<path d="M142.8 85.1542C145.261 88.7106 149.166 91.7929 154.118 94.0891C156.535 95.2662 159.364 96.0594 162.368 96.4022C163.947 96.5991 165.584 96.4952 167.07 96.1036C168.45 95.6305 169.614 94.9418 170.453 94.1033C171.427 93.1755 172.17 92.1588 172.658 91.0886C173.229 89.8918 173.662 88.6705 173.955 87.4341C173.952 87.4284 173.951 87.4222 173.952 87.4161C173.953 87.4101 173.957 87.4043 173.962 87.3993C173.968 87.3942 173.975 87.3901 173.984 87.3873C173.992 87.3845 174.002 87.383 174.011 87.383C174.021 87.383 174.031 87.3845 174.039 87.3873C174.048 87.3901 174.055 87.3942 174.061 87.3993C174.066 87.4043 174.07 87.4101 174.071 87.4161C174.072 87.4222 174.071 87.4284 174.068 87.4341C173.798 88.6049 173.678 89.8041 173.265 90.9417C172.926 91.9696 172.371 92.9643 171.615 93.8995C170.89 94.7978 169.867 95.5868 168.615 96.2126C167.267 96.8384 165.621 97.1529 163.95 97.1037C160.694 97.0077 157.547 96.3306 154.875 95.1508C152.217 94.044 149.848 92.6814 147.855 91.1124C145.593 89.3332 143.819 87.3273 142.605 85.1779C142.6 85.1615 142.606 85.1446 142.62 85.1308C142.635 85.1171 142.658 85.1075 142.684 85.1044C142.71 85.1013 142.736 85.1047 142.758 85.1141C142.78 85.1234 142.795 85.1378 142.8 85.1542V85.1542Z" fill="#263238"/>
<path d="M164.85 94.2644C158.94 94.8901 149.527 88.8513 146.055 84.1303C145.822 83.808 146.917 80.5421 147.96 76.5463C148.575 74.1147 149.175 71.3986 149.46 68.8959C149.512 68.3793 173.91 73.7402 173.91 73.7402C173.91 73.7402 170.91 78.8878 170.505 83.2534C170.481 83.5984 170.504 83.9441 170.572 84.2867C170.577 84.3435 170.577 84.4005 170.572 84.4573C170.857 86.4244 170.565 93.6529 164.85 94.2644Z" fill="#AD6359"/>
<path d="M168 84.4338C168.851 84.4807 169.707 84.4807 170.557 84.4338C170.557 84.3674 170.557 84.3105 170.557 84.2631C170.484 83.9208 170.464 83.5747 170.497 83.2298C170.91 78.8643 173.887 73.7214 173.887 73.7214C173.887 73.7214 154.087 69.3653 150.127 68.8818C150.585 71.8206 153.375 83.6185 168 84.4338Z" fill="#263238"/>
<path d="M145.92 51.7656C143.325 57.3541 148.282 73.4701 154.627 76.9919C163.822 82.1348 178.732 82.5235 185.61 75.5699C192.277 68.8201 185.227 47.9357 178.155 44.722C167.745 39.9725 149.745 43.4943 145.92 51.7656Z" fill="#AD6359"/>
<path d="M170.145 61.5441C170.145 61.5015 170.033 61.6105 170.048 61.6532C170.423 62.7339 170.573 64.0232 169.133 64.5541C169.088 64.5541 169.133 64.6251 169.133 64.6109C171 64.2175 170.783 62.5253 170.145 61.5441Z" fill="#263238"/>
<path d="M168.277 60.5963C165.48 60.7953 166.313 64.3172 168.907 64.1323C171.502 63.9475 170.625 60.4304 168.277 60.5963Z" fill="#263238"/>
<path d="M180.705 60.3971C180.705 60.3544 180.855 60.435 180.862 60.4777C181.065 61.5774 181.612 62.8098 183.24 63.0231C183.292 63.0231 183.3 63.0847 183.24 63.0847C181.29 63.0989 180.622 61.4541 180.705 60.3971Z" fill="#263238"/>
<path d="M181.98 59.108C184.725 58.7145 185.775 62.2127 183.232 62.5824C180.69 62.9521 179.677 59.4398 181.98 59.108Z" fill="#263238"/>
<path d="M165.697 59.1932C166.395 58.9858 167.076 58.7564 167.737 58.5059C168.51 58.3283 169.169 57.9952 169.612 57.5579C169.709 57.403 169.723 57.2324 169.651 57.0722C169.579 56.912 169.426 56.7712 169.215 56.6715C168.262 56.2828 167.182 56.4629 166.215 56.7616C165.226 57.045 164.442 57.5524 164.017 58.1836C163.938 58.3295 163.927 58.4868 163.985 58.6367C164.043 58.7866 164.168 58.9228 164.345 59.0291C164.522 59.1354 164.743 59.2074 164.983 59.2365C165.223 59.2656 165.471 59.2506 165.697 59.1932V59.1932Z" fill="#263238"/>
<path d="M183.75 57.1314C182.979 57.1067 182.21 57.0561 181.447 56.9797C180.627 56.9955 179.82 56.8407 179.152 56.5389C178.97 56.4187 178.856 56.2635 178.829 56.0978C178.802 55.9321 178.863 55.7654 179.002 55.6241C179.655 55.0411 180.765 54.951 181.83 54.9984C182.909 55.0307 183.931 55.3124 184.702 55.79C184.866 55.9061 184.973 56.0495 185.01 56.2031C185.047 56.3567 185.014 56.5138 184.913 56.6555C184.812 56.7973 184.649 56.9176 184.443 57.002C184.236 57.0865 183.996 57.1314 183.75 57.1314Z" fill="#263238"/>
<path d="M171 71.4555C171.472 71.6688 171.975 71.9816 172.605 71.9579C173.246 71.8888 173.856 71.7354 174.397 71.5076C174.408 71.5024 174.422 71.4996 174.435 71.4997C174.449 71.4999 174.462 71.503 174.473 71.5085C174.483 71.514 174.49 71.5217 174.493 71.5301C174.496 71.5386 174.494 71.5474 174.487 71.555C174.292 71.7937 173.997 71.9943 173.635 72.1353C173.273 72.2764 172.858 72.3527 172.432 72.3561C172.067 72.3314 171.721 72.2384 171.439 72.0889C171.157 71.9395 170.952 71.7405 170.85 71.5171C170.797 71.4602 170.925 71.4223 171 71.4555Z" fill="#263238"/>
<path d="M172.035 68.0143C172.575 68.4056 173.238 68.7218 173.982 68.9429C174.725 69.1641 175.533 69.2852 176.355 69.2988C177.072 69.315 177.789 69.2671 178.485 69.1566C178.618 69.1424 178.749 69.1202 178.875 69.0903C179.002 69.0903 179.115 69.0476 179.25 69.0192C179.339 68.9987 179.415 68.9602 179.467 68.9097C179.518 68.8592 179.542 68.7994 179.535 68.7395V68.7395C179.528 68.702 179.513 68.6654 179.49 68.6305V68.5357C179.325 67.692 178.89 66.4264 178.89 66.4264C179.415 66.5307 182.055 67.0047 181.89 66.5686C180.69 62.9662 179.355 58.9846 176.947 55.5386C176.935 55.5129 176.908 55.4911 176.871 55.4782C176.833 55.4654 176.789 55.4624 176.749 55.4699C176.708 55.4774 176.673 55.4949 176.653 55.5185C176.633 55.542 176.628 55.5697 176.64 55.5955C177.577 59.0841 179.482 62.4495 180.517 65.9429C179.574 65.7688 178.597 65.6779 177.615 65.6727C177.435 65.7249 178.522 68.1091 178.545 68.493C178.55 68.5071 178.55 68.5217 178.545 68.5357C176.355 68.9244 174.57 68.6589 172.177 67.9148C172.027 67.8531 171.915 67.9385 172.035 68.0143Z" fill="#263238"/>
<path d="M177.6 68.8059C177.01 69.4757 176.158 70.0388 175.125 70.4412C174.552 70.6476 173.891 70.7354 173.235 70.6924C171.803 70.5976 171.585 69.8013 171.675 69.0903C171.726 68.714 171.849 68.3432 172.043 67.9858C173.709 68.6273 175.657 68.9146 177.6 68.8059V68.8059Z" fill="#263238"/>
<path d="M175.125 70.4413C174.552 70.6478 173.891 70.7356 173.235 70.6926C171.803 70.5978 171.585 69.8014 171.675 69.0904C173.175 69.0478 174.788 69.5407 175.125 70.4413Z" fill="#FF97B8"/>
<path d="M174.75 48.5094C174.029 49.4271 172.949 50.2135 171.613 50.7941C170.277 51.3747 168.729 51.7303 167.115 51.8274C163.912 51.998 160.327 51.1353 158.475 49.4242C158.422 49.372 158.295 49.4242 158.347 49.4763C160.327 51.306 163.597 52.5573 167.167 52.3203C168.868 52.1847 170.482 51.7698 171.849 51.1169C173.216 50.464 174.289 49.596 174.96 48.5994C175.005 48.4857 174.81 48.424 174.75 48.5094Z" fill="#263238"/>
<path d="M160.987 37.3276C156.9 37.2328 153.105 39.0198 151.56 41.3518C150.682 42.7489 150.382 44.2646 150.69 45.7553C150.69 45.7679 150.698 45.7799 150.712 45.7888C150.726 45.7977 150.745 45.8027 150.765 45.8027C150.785 45.8027 150.804 45.7977 150.818 45.7888C150.832 45.7799 150.84 45.7679 150.84 45.7553C150.66 43.3853 152.085 40.7119 155.085 39.1762C156.431 38.4347 158.11 37.9769 159.887 37.8665C161.664 37.756 163.451 37.9984 165 38.56C166.717 39.191 168.041 40.1746 168.75 41.3471C168.769 41.3704 168.801 41.3886 168.839 41.3983C168.878 41.408 168.921 41.4086 168.96 41.4C168.999 41.3913 169.032 41.374 169.053 41.3513C169.074 41.3285 169.081 41.3018 169.072 41.276C168.533 40.1714 167.467 39.1992 166.02 38.4924C164.572 37.7856 162.815 37.3788 160.987 37.3276V37.3276Z" fill="#263238"/>
<path d="M192 38.7307C190.551 37.2863 188.341 36.2119 185.76 35.6971C182.182 34.9766 178.747 35.6971 175.357 36.4792C175.267 36.4792 175.32 36.5882 175.41 36.5692C178.297 35.9198 181.282 35.3653 184.357 35.8156C186.887 36.1849 189.137 37.096 190.725 38.3941C192.3 39.737 193.055 41.3938 192.852 43.0603C192.65 44.7268 191.503 46.2913 189.622 47.4665C188.511 48.1244 187.199 48.632 185.766 48.958C184.333 49.284 182.81 49.4217 181.29 49.3625C181.17 49.3625 181.125 49.4715 181.252 49.4762C183.33 49.6067 185.423 49.3693 187.299 48.7908C189.175 48.2122 190.759 47.3152 191.874 46.2001C192.99 45.085 193.592 43.7957 193.614 42.4766C193.636 41.1575 193.078 39.8605 192 38.7307Z" fill="#263238"/>
<path d="M145.402 53.2019C145.402 53.2019 144.112 48.4239 145.522 46.6986C146.932 44.9732 151.08 44.0157 151.08 44.0157C151.08 44.0157 152.122 39.6549 158.047 38.5126C163.365 37.4888 168.127 39.9678 168.127 39.9678C168.127 39.9678 173.887 34.1755 183.42 35.5975C192.465 36.9389 194.295 44.9069 187.35 48.5519C182.475 51.1115 173.752 49.1776 173.752 49.1776C173.055 49.353 166.74 53.3156 159.502 50.0071C159.502 50.0071 155.362 53.2493 151.8 51.9031C151.822 51.9221 148.357 53.6616 145.402 53.2019Z" fill="#263238"/>
<path opacity="0.2" d="M149.542 47.5471C150.15 49.9977 151.792 56.9892 150.93 58.7003C150.067 60.4115 148.207 64.8244 146.97 65.2984C145.222 60.0844 144.607 54.5908 145.92 51.7657C146.645 50.2143 147.879 48.7769 149.542 47.5471V47.5471Z" fill="#263238"/>
<path d="M150.45 64.701C150.45 64.701 144.45 59.6103 140.752 60.9801C137.055 62.35 141.787 69.8202 146.235 70.7635C146.791 70.9102 147.388 70.9841 147.99 70.9807C148.593 70.9773 149.188 70.8968 149.74 70.7439C150.291 70.591 150.788 70.369 151.2 70.0913C151.613 69.8136 151.931 69.486 152.137 69.1282L150.45 64.701Z" fill="#AD6359"/>
<path d="M142.185 63.0989C142.169 63.0989 142.154 63.1029 142.143 63.11C142.131 63.1171 142.125 63.1267 142.125 63.1368C142.125 63.1469 142.131 63.1565 142.143 63.1636C142.154 63.1707 142.169 63.1747 142.185 63.1747C145.297 63.8999 147.015 65.6727 148.237 67.5213C147.292 66.8198 146.025 66.4501 144.533 67.1705C144.45 67.2085 144.532 67.2843 144.622 67.2701C145.158 67.1508 145.739 67.1392 146.285 67.2368C146.832 67.3344 147.317 67.5364 147.675 67.8152C148.258 68.2862 148.76 68.7946 149.175 69.332C149.325 69.5026 149.82 69.4031 149.707 69.204C149.706 69.1882 149.706 69.1724 149.707 69.1566C149.64 66.6776 146.415 63.2648 142.185 63.0989Z" fill="#263238"/>
<path d="M213.99 120.496C209.992 120.97 211.057 117.628 207.352 117.41C203.647 117.192 202.538 119.78 200.258 119.41C197.978 119.04 199.612 116.457 195.075 116.433C190.538 116.41 189.502 120.358 186.757 121.268C184.012 122.178 178.11 120.633 177.405 123.795C176.7 126.956 186.832 128.008 194.107 130.222C201.382 132.436 209.25 135.801 215.812 135.564C222.847 135.284 225.907 132.388 231.292 131.928C236.677 131.469 249.052 133.573 254.325 130.592C259.597 127.61 268.11 125.207 268.237 121.974C268.365 118.742 261.645 120.164 259.492 120.007C257.34 119.851 257.542 116.282 253.402 115.784C249.262 115.286 248.242 116.907 244.642 117.069C241.042 117.23 239.497 112.803 234.45 113.599C229.402 114.395 230.7 116.196 228.517 116.983C226.335 117.77 222.09 115.983 219.142 116.803C216.195 117.623 217.552 120.093 213.99 120.496Z" fill="#455A64"/>
<path d="M230.302 122.614C234.472 122.742 232.717 119.529 236.452 119.012C240.187 118.495 241.837 120.979 244.095 120.434C246.352 119.889 244.155 117.457 248.775 117.064C253.395 116.67 255.247 120.515 258.232 121.192C261.217 121.87 266.925 119.865 268.29 122.946C269.655 126.027 259.515 127.885 252.54 130.668C245.565 133.45 238.222 137.422 231.472 137.692C224.242 137.981 220.53 135.351 214.972 135.322C209.415 135.294 197.182 138.384 191.205 135.848C185.227 133.313 176.07 131.62 175.282 128.426C174.495 125.231 181.642 126.094 183.802 125.766C185.962 125.439 185.047 121.913 189.165 121.088C193.282 120.263 194.655 121.785 198.36 121.657C202.065 121.529 202.747 117.021 208.057 117.391C213.367 117.761 212.392 119.666 214.807 120.268C217.222 120.87 221.167 118.761 224.332 119.32C227.497 119.879 226.59 122.501 230.302 122.614Z" fill="#37474F"/>
<path d="M184.567 122.458C181.027 123.965 179.092 127.525 181.942 130.909C184.792 134.294 192.007 133.862 195.442 132.379C198.877 130.895 201.78 127.193 198.847 124.036C196.335 121.297 190.77 119.818 184.567 122.458Z" fill="#FF8473"/>
<path opacity="0.1" d="M184.567 122.458C181.027 123.965 179.092 127.525 181.942 130.909C184.792 134.294 192.007 133.862 195.442 132.379C198.877 130.895 201.78 127.193 198.847 124.036C196.335 121.297 190.77 119.818 184.567 122.458Z" fill="black"/>
<path d="M185.617 123.344C182.73 124.572 181.117 127.482 183.48 130.246C185.842 133.009 191.73 132.658 194.52 131.445C197.31 130.232 199.702 127.212 197.31 124.629C195.24 122.392 190.695 121.188 185.617 123.344Z" fill="#FF8473"/>
<path d="M191.662 124.88C191.917 125.008 192.832 124.525 192.33 124.297C191.827 124.07 191.332 124.719 191.662 124.88Z" fill="white"/>
<path d="M193.8 128.051C193.672 128.236 194.64 128.677 194.865 128.312C195.09 127.947 193.972 127.805 193.8 128.051Z" fill="white"/>
<path d="M195.945 126.819C195.997 127.018 197.19 127.051 197.062 126.667C196.935 126.283 195.877 126.558 195.945 126.819Z" fill="white"/>
<path d="M191.602 123.491C191.917 123.458 191.977 122.709 191.37 122.785C190.762 122.861 191.182 123.534 191.602 123.491Z" fill="white"/>
<path d="M185.895 126.117C185.977 125.923 184.912 125.582 184.777 125.966C184.642 126.349 185.782 126.378 185.895 126.117Z" fill="white"/>
<path d="M188.445 130.308C188.183 130.189 187.305 130.696 187.823 130.909C188.34 131.123 188.79 130.464 188.445 130.308Z" fill="white"/>
<path d="M190.537 130.051C190.222 130.018 189.787 130.72 190.402 130.767C191.018 130.815 190.958 130.094 190.537 130.051Z" fill="white"/>
<path d="M188.34 127.084C188.565 126.942 187.905 126.312 187.492 126.61C187.08 126.909 188.04 127.274 188.34 127.084Z" fill="white"/>
<path d="M181.92 127.606C181.92 127.606 187.732 127.198 188.497 127.942C189.262 128.686 185.13 131.957 184.447 131.668C183.765 131.379 181.29 128.847 181.92 127.606Z" fill="#FF8473"/>
<path opacity="0.1" d="M181.92 127.606C181.92 127.606 187.732 127.198 188.497 127.942C189.262 128.686 185.13 131.957 184.447 131.668C183.765 131.379 181.29 128.847 181.92 127.606Z" fill="black"/>
<path d="M191.857 132.478C191.857 132.478 190.14 128.942 191.16 128.331C192.18 127.719 198.022 129.672 197.707 130.151C197.392 130.63 193.905 132.635 191.857 132.478Z" fill="#FF8473"/>
<path opacity="0.1" d="M191.857 132.478C191.857 132.478 190.14 128.942 191.16 128.331C192.18 127.719 198.022 129.672 197.707 130.151C197.392 130.63 193.905 132.635 191.857 132.478Z" fill="black"/>
<path d="M199.26 125.966C199.26 125.966 193.575 126.838 192.667 126.16C191.76 125.482 195.195 121.894 195.93 122.141C196.665 122.387 199.627 124.662 199.26 125.966Z" fill="#FF8473"/>
<path opacity="0.1" d="M199.26 125.966C199.26 125.966 193.575 126.838 192.667 126.16C191.76 125.482 195.195 121.894 195.93 122.141C196.665 122.387 199.627 124.662 199.26 125.966Z" fill="black"/>
<path d="M189.622 121.666C189.622 121.666 191.01 125.259 189.937 125.833C188.865 126.406 183.187 124.235 183.57 123.771C183.952 123.306 187.597 121.429 189.622 121.666Z" fill="#FF8473"/>
<path opacity="0.1" d="M189.622 121.666C189.622 121.666 191.01 125.259 189.937 125.833C188.865 126.406 183.187 124.235 183.57 123.771C183.952 123.306 187.597 121.429 189.622 121.666Z" fill="black"/>
<path d="M215.085 114.111C210.915 113.533 205.507 115.106 203.602 118.747C201.697 122.387 207.172 125.383 211.26 125.942C215.347 126.501 221.565 125.259 223.162 121.738C224.542 118.69 222.39 115.125 215.085 114.111Z" fill="#FF8473"/>
<path opacity="0.1" d="M215.085 114.111C210.915 113.533 205.507 115.106 203.602 118.747C201.697 122.387 207.172 125.383 211.26 125.942C215.347 126.501 221.565 125.259 223.162 121.738C224.542 118.69 222.39 115.125 215.085 114.111Z" fill="black"/>
<path d="M214.8 115.182C211.402 114.708 206.985 115.997 205.425 118.974C203.865 121.951 208.342 124.401 211.68 124.852C215.017 125.302 220.102 124.297 221.43 121.42C222.532 118.941 220.77 116.031 214.8 115.182Z" fill="#FF8473"/>
<path d="M217.215 119.026C217.215 119.23 218.43 119.315 218.347 118.927C218.265 118.538 217.17 118.761 217.215 119.026Z" fill="white"/>
<path d="M215.07 122.193C214.762 122.264 214.927 123.008 215.497 122.861C216.067 122.714 215.46 122.103 215.07 122.193Z" fill="white"/>
<path d="M217.957 122.32C217.762 122.486 218.542 123.05 218.895 122.728C219.247 122.406 218.205 122.107 217.957 122.32Z" fill="white"/>
<path d="M218.76 118.026C219.015 118.154 219.922 117.661 219.412 117.438C218.902 117.216 218.422 117.874 218.76 118.026Z" fill="white"/>
<path d="M211.815 117.244C212.1 117.145 211.747 116.424 211.222 116.628C210.697 116.832 211.447 117.372 211.815 117.244Z" fill="white"/>
<path d="M208.785 121.306C208.74 121.102 207.547 121.05 207.66 121.434C207.772 121.818 208.837 121.567 208.785 121.306Z" fill="white"/>
<path d="M210.518 122.083C210.338 121.913 209.235 122.202 209.603 122.515C209.97 122.828 210.75 122.292 210.518 122.083Z" fill="white"/>
<path d="M212.393 119.031C212.715 119.031 212.978 118.296 212.393 118.306C211.808 118.315 211.973 119.026 212.393 119.031Z" fill="white"/>
<path d="M207.367 116.452C207.367 116.452 211.867 118.822 211.53 119.695C211.192 120.567 204.608 120.927 204.465 120.415C204.323 119.903 205.5 117.026 207.367 116.452Z" fill="#FF8473"/>
<path opacity="0.1" d="M207.367 116.452C207.367 116.452 211.867 118.822 211.53 119.695C211.192 120.567 204.608 120.927 204.465 120.415C204.323 119.903 205.5 117.026 207.367 116.452Z" fill="black"/>
<path d="M208.657 124.363C208.657 124.363 211.515 121.135 212.917 121.178C214.32 121.221 216.12 125.245 215.355 125.444C214.59 125.643 209.887 125.411 208.657 124.363Z" fill="#FF8473"/>
<path opacity="0.1" d="M208.657 124.363C208.657 124.363 211.515 121.135 212.917 121.178C214.32 121.221 216.12 125.245 215.355 125.444C214.59 125.643 209.887 125.411 208.657 124.363Z" fill="black"/>
<path d="M221.25 123.24C221.25 123.24 216.322 121.24 216.472 120.358C216.622 119.477 223.087 118.581 223.327 119.074C223.567 119.567 222.945 122.534 221.25 123.24Z" fill="#FF8473"/>
<path opacity="0.1" d="M221.25 123.24C221.25 123.24 216.322 121.24 216.472 120.358C216.622 119.477 223.087 118.581 223.327 119.074C223.567 119.567 222.945 122.534 221.25 123.24Z" fill="black"/>
<path d="M219.488 115.874C219.488 115.874 216.33 118.988 214.935 118.893C213.54 118.799 212.123 114.717 212.903 114.561C213.683 114.405 218.355 114.784 219.488 115.874Z" fill="#FF8473"/>
<path opacity="0.1" d="M219.488 115.874C219.488 115.874 216.33 118.988 214.935 118.893C213.54 118.799 212.123 114.717 212.903 114.561C213.683 114.405 218.355 114.784 219.488 115.874Z" fill="black"/>
<path d="M226.845 131.469C229.988 133.294 235.913 133.649 240.458 131.109C245.002 128.568 242.648 124.231 239.558 122.458C236.468 120.685 230.1 119.775 225.923 122.311C222.308 124.511 221.333 128.274 226.845 131.469Z" fill="#FF8473"/>
<path opacity="0.1" d="M226.845 131.469C229.988 133.294 235.913 133.649 240.458 131.109C245.002 128.568 242.648 124.231 239.558 122.458C236.468 120.685 230.1 119.775 225.923 122.311C222.308 124.511 221.333 128.274 226.845 131.469Z" fill="black"/>
<path d="M227.955 130.615C230.52 132.104 235.365 132.393 239.077 130.322C242.79 128.25 240.87 124.705 238.327 123.249C235.785 121.794 230.602 121.06 227.19 123.131C224.25 124.927 223.455 128.004 227.955 130.615Z" fill="#FF8473"/>
<path d="M228.915 126.558C229.05 126.373 228.09 125.923 227.857 126.283C227.625 126.643 228.75 126.786 228.915 126.558Z" fill="white"/>
<path d="M233.287 124.487C233.602 124.525 234.037 123.828 233.437 123.771C232.837 123.714 232.867 124.439 233.287 124.487Z" fill="white"/>
<path d="M230.887 123.458C231.187 123.382 230.962 122.643 230.4 122.809C229.837 122.975 230.505 123.562 230.887 123.458Z" fill="white"/>
<path d="M226.785 126.909C226.665 126.719 225.495 126.857 225.75 127.212C226.005 127.568 226.95 127.151 226.785 126.909Z" fill="white"/>
<path d="M232.162 129.8C231.84 129.8 231.57 130.525 232.162 130.521C232.755 130.516 232.582 129.805 232.162 129.8Z" fill="white"/>
<path d="M238.013 127.25C237.893 127.44 238.875 127.862 239.085 127.497C239.295 127.132 238.17 127.004 238.013 127.25Z" fill="white"/>
<path d="M237.128 126.027C237.128 126.231 238.335 126.331 238.26 125.942C238.185 125.553 237.098 125.762 237.128 126.027Z" fill="white"/>
<path d="M233.077 128.07C232.8 127.966 231.99 128.52 232.537 128.705C233.085 128.89 233.445 128.208 233.077 128.07Z" fill="white"/>
<path d="M235.38 131.895C235.38 131.895 233.393 128.416 234.36 127.771C235.328 127.127 241.32 128.904 241.043 129.388C240.765 129.871 237.443 131.99 235.38 131.895Z" fill="#FF8473"/>
<path opacity="0.1" d="M235.38 131.895C235.38 131.895 233.393 128.416 234.36 127.771C235.328 127.127 241.32 128.904 241.043 129.388C240.765 129.871 237.443 131.99 235.38 131.895Z" fill="black"/>
<path d="M240.555 124.662C240.555 124.662 235.515 126.558 234.337 126.06C233.16 125.563 234.795 121.529 235.605 121.614C236.415 121.7 240.315 123.349 240.555 124.662Z" fill="#FF8473"/>
<path opacity="0.1" d="M240.555 124.662C240.555 124.662 235.515 126.558 234.337 126.06C233.16 125.563 234.795 121.529 235.605 121.614C236.415 121.7 240.315 123.349 240.555 124.662Z" fill="black"/>
<path d="M228.802 121.624C228.802 121.624 231.472 124.913 230.647 125.629C229.822 126.345 223.515 125.065 223.695 124.563C223.875 124.06 226.747 121.695 228.802 121.624Z" fill="#FF8473"/>
<path opacity="0.1" d="M228.802 121.624C228.802 121.624 231.472 124.913 230.647 125.629C229.822 126.345 223.515 125.065 223.695 124.563C223.875 124.06 226.747 121.695 228.802 121.624Z" fill="black"/>
<path d="M224.438 128.544C224.438 128.544 229.65 126.857 230.783 127.383C231.915 127.909 229.89 131.891 229.088 131.777C228.285 131.663 224.55 129.848 224.438 128.544Z" fill="#FF8473"/>
<path opacity="0.1" d="M224.438 128.544C224.438 128.544 229.65 126.857 230.783 127.383C231.915 127.909 229.89 131.891 229.088 131.777C228.285 131.663 224.55 129.848 224.438 128.544Z" fill="black"/>
<path d="M249.75 125.511C252.892 127.335 258.817 127.686 263.362 125.146C267.907 122.605 265.552 118.273 262.462 116.495C259.372 114.718 253.005 113.812 248.827 116.348C245.25 118.547 244.237 122.292 249.75 125.511Z" fill="#FF8473"/>
<path opacity="0.1" d="M249.75 125.511C252.892 127.335 258.817 127.686 263.362 125.146C267.907 122.605 265.552 118.273 262.462 116.495C259.372 114.718 253.005 113.812 248.827 116.348C245.25 118.547 244.237 122.292 249.75 125.511Z" fill="black"/>
<path d="M250.86 124.662C253.425 126.15 258.27 126.44 261.983 124.363C265.695 122.287 263.775 118.746 261.233 117.296C258.69 115.846 253.508 115.101 250.095 117.178C247.155 118.974 246.36 122.041 250.86 124.662Z" fill="#FF8473"/>
<path d="M251.82 120.581C251.955 120.396 250.995 119.951 250.762 120.311C250.53 120.671 251.64 120.823 251.82 120.581Z" fill="white"/>
<path d="M256.193 118.528C256.508 118.562 256.943 117.865 256.343 117.813C255.743 117.761 255.75 118.5 256.193 118.528Z" fill="white"/>
<path d="M253.792 117.5C254.092 117.42 253.867 116.68 253.305 116.846C252.742 117.012 253.41 117.604 253.792 117.5Z" fill="white"/>
<path d="M249.69 120.946C249.57 120.756 248.4 120.899 248.655 121.249C248.91 121.6 249.855 121.192 249.69 120.946Z" fill="white"/>
<path d="M255.067 123.837C254.745 123.837 254.475 124.567 255.067 124.558C255.66 124.548 255.487 123.847 255.067 123.837Z" fill="white"/>
<path d="M260.917 121.292C260.797 121.482 261.78 121.903 261.99 121.534C262.2 121.164 261.075 121.045 260.917 121.292Z" fill="white"/>
<path d="M260.032 120.064C260.032 120.268 261.24 120.368 261.165 119.984C261.09 119.6 260.002 119.799 260.032 120.064Z" fill="white"/>
<path d="M255.982 122.112C255.705 122.008 254.895 122.557 255.442 122.747C255.99 122.937 256.35 122.249 255.982 122.112Z" fill="white"/>
<path d="M258.285 125.932C258.285 125.932 256.298 122.453 257.265 121.813C258.233 121.174 264.225 122.942 263.948 123.43C263.67 123.918 260.348 126.027 258.285 125.932Z" fill="#FF8473"/>
<path opacity="0.1" d="M258.285 125.932C258.285 125.932 256.298 122.453 257.265 121.813C258.233 121.174 264.225 122.942 263.948 123.43C263.67 123.918 260.348 126.027 258.285 125.932Z" fill="black"/>
<path d="M263.46 118.685C263.46 118.685 258.42 120.581 257.242 120.107C256.065 119.633 257.7 115.575 258.51 115.656C259.32 115.737 263.25 117.391 263.46 118.685Z" fill="#FF8473"/>
<path opacity="0.1" d="M263.46 118.685C263.46 118.685 258.42 120.581 257.242 120.107C256.065 119.633 257.7 115.575 258.51 115.656C259.32 115.737 263.25 117.391 263.46 118.685Z" fill="black"/>
<path d="M251.707 115.656C251.707 115.656 254.378 118.946 253.553 119.661C252.727 120.377 246.42 119.102 246.6 118.595C246.78 118.088 249.652 115.732 251.707 115.656Z" fill="#FF8473"/>
<path opacity="0.1" d="M251.707 115.656C251.707 115.656 254.378 118.946 253.553 119.661C252.727 120.377 246.42 119.102 246.6 118.595C246.78 118.088 249.652 115.732 251.707 115.656Z" fill="black"/>
<path d="M247.342 122.586C247.342 122.586 252.555 120.899 253.687 121.42C254.82 121.941 252.795 125.928 251.992 125.814C251.19 125.7 247.455 123.89 247.342 122.586Z" fill="#FF8473"/>
<path opacity="0.1" d="M247.342 122.586C247.342 122.586 252.555 120.899 253.687 121.42C254.82 121.941 252.795 125.928 251.992 125.814C251.19 125.7 247.455 123.89 247.342 122.586Z" fill="black"/>
<path d="M173.257 128.658L195.217 147.566L252.562 145.281L270.592 124.781L173.257 128.658Z" fill="#EBEBEB"/>
<path d="M127.448 97.0848C113.73 120.154 102.51 145.286 111 150.301C117.855 154.344 174.788 160.255 187.245 159.719C192.54 159.501 197.918 133.649 188.745 132.744C186.135 132.488 145.245 131.895 144.84 131.322C143.498 129.549 144.57 117.016 145.073 102.081C145.703 82.8837 133.253 87.3204 127.448 97.0848Z" fill="#AD6359"/>
<path d="M184.425 159.501C199.252 160.61 217.605 162.563 233.032 158.283C234.764 157.832 236.206 157.028 237.128 155.998C244.095 154.159 244.815 151.524 244.815 151.524C250.47 148.552 250.62 145.798 250.62 145.798C250.62 145.798 258.757 143.579 257.452 140.247C256.005 136.503 244.852 140.351 236.677 140.1C217.927 139.517 188.782 135.28 183.427 134.772L184.425 159.501Z" fill="#AD6359"/>
<path d="M216.382 148.196C221.902 148.296 227.325 148.49 232.837 148.116C238.89 147.708 244.605 146.694 250.462 145.717C250.481 145.713 250.5 145.712 250.519 145.713C250.538 145.714 250.557 145.717 250.574 145.723C250.591 145.728 250.606 145.736 250.618 145.745C250.631 145.754 250.64 145.765 250.646 145.776C250.652 145.788 250.654 145.8 250.653 145.812C250.651 145.824 250.646 145.836 250.637 145.847C250.629 145.858 250.617 145.867 250.602 145.875C250.587 145.883 250.571 145.889 250.552 145.893C240.382 148.689 227.302 149.509 216.367 148.353C216.105 148.329 216.105 148.191 216.382 148.196Z" fill="#263238"/>
<path d="M214.185 155.297C219.563 155.207 229.02 155.012 244.778 151.4C244.83 151.4 244.875 151.438 244.823 151.457C235.073 154.661 225.06 155.851 214.193 155.458C213.855 155.444 213.825 155.301 214.185 155.297Z" fill="#263238"/>
<path d="M213.112 159.122C222.255 158.752 227.94 157.785 237.112 155.965C237.157 155.965 237.202 156.008 237.15 156.022C227.077 158.785 222.9 159.065 213.09 159.34C212.752 159.33 212.752 159.136 213.112 159.122Z" fill="#263238"/>
<path d="M214.163 138.493C211.77 137.806 212.318 137.01 216.863 136.308C221.408 135.607 240.308 135.261 239.558 131.094C238.808 126.928 212.438 128.449 204.728 129.198C196.638 130.065 188.974 132.101 182.333 135.147C187.568 135.668 203.91 137.403 214.163 138.493Z" fill="#AD6359"/>
<path d="M145.987 125.8L106.095 131.412C106.095 131.412 119.737 104.844 128.595 94.4825C137.895 83.6847 146.43 83.3008 147 99.54C147.502 115.58 145.987 125.8 145.987 125.8Z" fill="#FF8473"/>
<path d="M111.233 126.44C112.208 126.231 113.243 126.108 114.233 125.966L117.323 125.492C119.415 125.174 121.515 124.88 123.615 124.591C127.808 124.017 132.008 123.43 136.215 122.899C137.378 122.757 138.533 122.61 139.695 122.486C140.858 122.363 142.163 122.273 143.385 122.14C143.46 122.14 143.468 122.202 143.385 122.211C142.35 122.373 141.338 122.591 140.303 122.757C139.268 122.922 138.188 123.088 137.123 123.231C135.023 123.528 132.923 123.817 130.823 124.098C126.683 124.643 122.573 125.202 118.388 125.691L114.9 126.098C113.693 126.241 112.463 126.43 111.233 126.501C111.195 126.511 111.165 126.454 111.233 126.44Z" fill="#263238"/>
<path d="M115.185 116.163C116.145 114.452 117.022 112.731 117.945 111.016C118.987 109.067 119.932 107.1 120.945 105.143C120.945 105.095 120.832 105.067 120.802 105.114C119.55 107.2 115.282 114.149 114.607 115.329C112.635 118.765 110.662 122.202 108.735 125.648C107.655 127.582 106.485 129.814 105.42 131.748C105.345 131.89 108.547 131.341 110.227 131.023C110.317 131.023 110.377 130.81 110.265 130.829C108.675 131.056 106.515 131.203 106.275 131.241C108.322 127.97 110.287 124.676 112.215 121.372C113.22 119.641 114.21 117.904 115.185 116.163Z" fill="#263238"/>
<path d="M140.25 125.34C139.978 125.78 139.764 126.233 139.612 126.695L140.265 126.605C140.559 126.26 140.822 125.904 141.052 125.539C141.449 124.885 141.702 124.199 141.802 123.501C141.147 124.063 140.624 124.682 140.25 125.34V125.34ZM121.5 115.092C121.094 115.745 120.841 116.431 120.75 117.13C122.049 115.983 122.862 114.645 123.112 113.243C122.433 113.806 121.89 114.429 121.5 115.092V115.092ZM141 111.494C140.56 110.847 139.977 110.242 139.267 109.698C139.423 110.395 139.742 111.074 140.212 111.712C140.65 112.361 141.234 112.966 141.945 113.509C141.8 112.813 141.497 112.135 141.045 111.494H141ZM140.805 91.1455C140.367 90.4986 139.783 89.8951 139.072 89.3538C139.236 90.0484 139.555 90.725 140.017 91.3635C140.455 92.0119 141.039 92.6169 141.75 93.16C141.605 92.4646 141.302 91.7861 140.85 91.1455H140.805ZM119.91 126.658C118.89 126.937 117.936 127.304 117.075 127.748C118.178 127.648 119.252 127.447 120.262 127.151C121.284 126.873 122.238 126.506 123.097 126.06C122.011 126.165 120.953 126.366 119.955 126.658H119.91ZM131.43 101.436C130.406 101.713 129.449 102.08 128.587 102.526C129.692 102.422 130.767 102.214 131.775 101.91C132.801 101.636 133.759 101.268 134.617 100.82C133.514 100.929 132.441 101.136 131.43 101.436V101.436Z" fill="white"/>
<path opacity="0.8" d="M196.5 209.878C196.5 211.864 169.245 211.84 169.252 209.849L169.387 189.742C169.975 189.714 170.551 189.623 171.09 189.472C171.175 189.448 171.247 189.409 171.298 189.36C171.348 189.311 171.375 189.254 171.375 189.195C171.375 189.136 171.348 189.079 171.298 189.029C171.247 188.98 171.175 188.941 171.09 188.918C170.547 188.757 169.972 188.643 169.38 188.581V187.5C169.97 187.473 170.548 187.384 171.09 187.235C171.173 187.208 171.243 187.167 171.292 187.116C171.341 187.066 171.367 187.007 171.367 186.948C171.367 186.889 171.341 186.831 171.292 186.78C171.243 186.729 171.173 186.688 171.09 186.661C170.54 186.517 169.966 186.411 169.38 186.344V185.263C169.969 185.232 170.547 185.141 171.09 184.993C171.174 184.967 171.244 184.926 171.293 184.876C171.343 184.825 171.369 184.768 171.369 184.708C171.369 184.649 171.343 184.591 171.293 184.541C171.244 184.491 171.174 184.45 171.09 184.424C170.542 184.275 169.968 184.166 169.38 184.102V183.007C169.966 182.972 170.542 182.886 171.09 182.751C171.174 182.725 171.244 182.684 171.293 182.634C171.343 182.583 171.369 182.526 171.369 182.466C171.369 182.407 171.343 182.349 171.293 182.299C171.244 182.249 171.174 182.208 171.09 182.182C170.538 182.038 169.965 181.927 169.38 181.85V177.305C169.38 175.707 177.78 170.631 179.077 169.853L179.25 169.754V169.754V168.517H186.832V169.754C186.832 169.754 196.672 175.593 196.672 177.338V181.879C196.087 181.958 195.515 182.07 194.962 182.215C194.881 182.235 194.812 182.272 194.767 182.319C194.705 182.379 194.676 182.451 194.685 182.522C194.695 182.593 194.742 182.661 194.82 182.713C194.855 182.745 194.905 182.77 194.962 182.784C195.508 182.92 196.081 183.006 196.665 183.04V184.135C196.099 184.198 195.546 184.299 195.015 184.438H194.955C194.871 184.465 194.801 184.505 194.751 184.555C194.702 184.606 194.676 184.664 194.676 184.723C194.676 184.782 194.702 184.84 194.751 184.89C194.801 184.94 194.871 184.981 194.955 185.007L195.09 185.04C195.594 185.172 196.128 185.254 196.672 185.282V186.363C196.199 186.415 195.734 186.496 195.285 186.604L194.962 186.68C194.879 186.707 194.808 186.747 194.759 186.797C194.71 186.848 194.684 186.906 194.684 186.965C194.684 187.024 194.71 187.082 194.759 187.132C194.808 187.182 194.879 187.223 194.962 187.249C195.089 187.29 195.222 187.322 195.36 187.344C195.783 187.44 196.224 187.499 196.672 187.519V188.6C196.28 188.643 195.893 188.706 195.517 188.79C195.315 188.837 195.127 188.889 194.97 188.937C194.885 188.96 194.813 188.999 194.762 189.048C194.712 189.098 194.685 189.155 194.685 189.214C194.685 189.273 194.712 189.33 194.762 189.379C194.813 189.428 194.885 189.467 194.97 189.491C195.179 189.549 195.394 189.597 195.615 189.633C195.962 189.699 196.319 189.742 196.68 189.761V200.189L196.5 209.878Z" fill="white"/>
<path opacity="0.8" d="M194.288 179.551L194.25 198.379L194.16 208.333C194.16 209.963 171.72 209.949 171.728 208.304L171.863 179.722C173.76 180.148 178.185 181.016 182.018 180.76C185.85 180.504 190.74 179.646 194.25 179.461C194.271 179.49 194.283 179.52 194.288 179.551V179.551Z" fill="#EBEBEB"/>
<path d="M188.424 165.483L177.699 165.474C177.488 165.474 177.316 165.582 177.316 165.715L177.311 168.275C177.31 168.408 177.481 168.517 177.693 168.517L188.418 168.526C188.629 168.527 188.8 168.418 188.801 168.285L188.806 165.725C188.806 165.592 188.635 165.483 188.424 165.483Z" fill="#FF8473"/>
<path d="M37.9951 193.634C38.9281 193.63 39.8403 193.459 40.6251 193.14C41.4099 192.821 42.035 192.368 42.4276 191.833C42.4276 191.833 44.4226 193.06 47.6776 192.212C50.9326 191.363 54.3376 186.197 51.9226 181.898C49.5076 177.598 43.1626 176.584 38.0551 179.945C31.1476 178.347 26.1301 181.025 26.9851 185.557C27.8401 190.088 34.5001 193.786 37.9951 193.634Z" fill="#FF8473"/>
<path d="M32.1975 175.044C33.9846 175.377 35.5933 176.013 36.8492 176.882C38.1052 177.752 38.9605 178.823 39.3225 179.978C39.6525 181.04 37.0725 181.428 36.7125 180.357C36.15 178.565 33.7125 177.769 30.9525 177.248C29.3025 176.935 30.54 174.731 32.1975 175.044Z" fill="#37474F"/>
<path d="M37.575 181.068C37.575 181.068 38.0775 176.124 45.6074 175.479C45.2832 176.806 44.3489 178.043 42.9207 179.037C41.4925 180.031 39.6334 180.737 37.575 181.068V181.068Z" fill="#37474F"/>
<path d="M63.2474 192.795C63.8332 193.256 64.6152 193.602 65.5014 193.792C66.3876 193.981 67.3412 194.007 68.2499 193.866C68.2499 193.866 67.9574 195.62 71.0249 196.71C74.0924 197.8 82.6274 196.298 86.4824 192.444C90.3373 188.591 87.6749 184.808 80.3399 184.343C78.0899 179.926 71.6249 179.087 66.5174 182.31C61.4099 185.533 60.8849 191.136 63.2474 192.795Z" fill="#FF8473"/>
<path d="M82.7925 178.423C83.4825 179.517 83.6858 180.709 83.3804 181.87C83.075 183.032 82.2726 184.118 81.06 185.012C79.9425 185.837 77.85 184.78 78.975 183.955C80.8575 182.566 80.3475 180.869 79.2825 179.167C78.645 178.158 82.155 177.409 82.7925 178.423Z" fill="#37474F"/>
<path d="M78.645 184.803C78.645 184.803 85.11 181.997 90.5625 185.343C88.7109 186.001 86.5941 186.301 84.4753 186.205C82.3565 186.109 80.3291 185.621 78.645 184.803Z" fill="#37474F"/>
<path d="M58.2975 195.847C57.3774 195.75 56.5202 195.489 55.8257 195.096C55.1312 194.702 54.6281 194.192 54.375 193.624C54.375 193.624 52.125 194.639 49.08 193.477C46.035 192.316 44.0175 186.87 47.475 182.864C50.9325 178.859 57.45 178.494 61.6575 182.319C68.88 181.438 73.1625 184.585 71.1825 188.955C69.2025 193.326 61.74 196.345 58.2975 195.847Z" fill="#FF8473"/>
<path opacity="0.1" d="M58.2975 195.847C57.3774 195.75 56.5202 195.489 55.8257 195.096C55.1312 194.702 54.6281 194.192 54.375 193.624C54.375 193.624 52.125 194.639 49.08 193.477C46.035 192.316 44.0175 186.87 47.475 182.864C50.9325 178.859 57.45 178.494 61.6575 182.319C68.88 181.438 73.1625 184.585 71.1825 188.955C69.2025 193.326 61.74 196.345 58.2975 195.847Z" fill="black"/>
<path d="M68.6776 178.068C66.8332 178.221 65.09 178.689 63.6361 179.423C62.1822 180.156 61.0728 181.127 60.4276 182.229C59.8351 183.244 62.3101 183.888 62.9101 182.864C63.9076 181.153 66.5101 180.608 69.3751 180.371C71.0626 180.229 70.3876 177.925 68.6776 178.068Z" fill="#37474F"/>
<path d="M61.8674 183.438C61.8674 183.438 62.6174 178.508 55.3349 177.12C55.3219 178.462 55.9344 179.777 57.0961 180.9C58.2578 182.024 59.9172 182.907 61.8674 183.438Z" fill="#37474F"/>
<path d="M97.9651 194.999C97.0699 195.167 96.1177 195.171 95.2189 195.011C94.3201 194.851 93.5117 194.533 92.8876 194.094C92.8876 194.094 91.5526 195.639 88.0351 195.43C84.5176 195.222 78.8851 190.908 79.2076 186.348C79.5301 181.789 85.1251 179.651 91.5676 181.917C97.4326 179.115 103.47 180.75 104.745 185.235C106.02 189.719 101.4 194.492 97.9651 194.999Z" fill="#FF8473"/>
<path opacity="0.1" d="M97.9651 194.999C97.0699 195.167 96.1177 195.171 95.2189 195.011C94.3201 194.851 93.5117 194.533 92.8876 194.094C92.8876 194.094 91.5526 195.639 88.0351 195.43C84.5176 195.222 78.8851 190.908 79.2076 186.348C79.5301 181.789 85.1251 179.651 91.5676 181.917C97.4326 179.115 103.47 180.75 104.745 185.235C106.02 189.719 101.4 194.492 97.9651 194.999Z" fill="black"/>
<path d="M94.9049 176.148C93.3566 176.8 92.1193 177.706 91.3262 178.769C90.5332 179.833 90.2146 181.013 90.4049 182.182C90.5774 183.263 93.2474 183.13 93.0749 182.064C92.7824 180.248 94.7399 179.039 97.1474 178.025C98.5574 177.423 96.3449 175.546 94.9049 176.148Z" fill="#37474F"/>
<path d="M92.5424 182.879C92.5424 182.879 89.7749 178.243 82.2749 179.02C83.1991 180.229 84.6652 181.239 86.4908 181.925C88.3164 182.611 90.4209 182.943 92.5424 182.879V182.879Z" fill="#37474F"/>
<path d="M104.61 188.524C104.61 188.524 97.7475 204.768 88.77 204.768H41.25C32.25 204.768 25.4175 188.524 25.4175 188.524H104.61Z" fill="#EBEBEB"/>
<path d="M303.518 189.671C310.65 183.983 310.418 182.831 310.32 182.329C310.32 182.196 306.608 168.948 299.955 168.948H286.868C286.913 167.355 286.988 166.132 287.048 165.857C287.31 164.644 288.233 163.487 289.703 163.487C291.173 163.487 291.203 162.345 289.703 162.345H262.38C260.918 162.345 260.918 163.487 262.38 163.487C263.843 163.487 269.303 164.819 270.12 165.492C270.938 166.165 271.17 176.153 270.968 178.418C270.765 180.684 254.25 186.514 251.895 193.345C249.54 200.175 255.285 209.906 278.978 209.906C302.67 209.906 308.408 200.175 306.068 193.345C305.569 192.034 304.705 190.79 303.518 189.671V189.671ZM287.018 178.433C286.823 177.522 286.785 174.678 286.823 171.92H299.715C301.808 172.948 305.1 180.286 305.648 182.514C305.205 183.244 302.955 185.291 300.608 187.22C294.99 183.158 287.31 179.94 286.988 178.433H287.018Z" fill="white"/>
<path d="M303.518 189.671C304.838 188.605 306.135 187.524 307.343 186.405C307.943 185.846 308.528 185.277 309.045 184.689C309.604 184.115 310.014 183.487 310.26 182.831C310.307 182.496 310.256 182.159 310.11 181.836L309.78 180.845C309.555 180.182 309.305 179.523 309.03 178.869C308.498 177.56 307.883 176.262 307.17 174.987C306.473 173.71 305.576 172.481 304.493 171.318C303.957 170.741 303.293 170.216 302.52 169.758C302.15 169.528 301.712 169.346 301.231 169.223C300.749 169.101 300.234 169.039 299.715 169.043H286.86H286.688V168.934L286.8 166.971L286.853 165.995C286.887 165.663 286.985 165.335 287.145 165.018C287.295 164.694 287.52 164.386 287.813 164.103C288.107 163.803 288.546 163.571 289.065 163.44C289.198 163.409 289.337 163.39 289.478 163.383H289.86C290.075 163.372 290.277 163.313 290.43 163.217C290.495 163.171 290.542 163.115 290.569 163.056C290.595 162.996 290.6 162.933 290.582 162.872C290.565 162.811 290.526 162.753 290.469 162.703C290.411 162.653 290.336 162.611 290.25 162.582C289.789 162.492 289.304 162.463 288.825 162.497H284.198H278.018H265.658H262.575C262.08 162.497 261.66 162.572 261.548 162.814C261.524 162.873 261.522 162.935 261.54 162.994C261.558 163.054 261.597 163.11 261.654 163.16C261.71 163.209 261.783 163.25 261.867 163.279C261.951 163.309 262.044 163.326 262.14 163.331C262.328 163.331 262.65 163.331 262.89 163.378C263.13 163.426 263.408 163.445 263.64 163.483C264.15 163.568 264.645 163.663 265.14 163.772C266.123 163.984 267.087 164.229 268.028 164.506C268.503 164.648 268.967 164.806 269.415 164.98C269.649 165.071 269.872 165.172 270.083 165.284C270.205 165.351 270.304 165.433 270.375 165.525C270.432 165.609 270.475 165.697 270.503 165.786C270.695 166.435 270.823 167.09 270.885 167.749C271.035 169.052 271.11 170.351 271.17 171.654C271.23 172.958 271.268 174.261 271.275 175.565C271.275 176.214 271.275 176.868 271.275 177.522C271.275 177.85 271.275 178.162 271.215 178.513C271.098 178.865 270.84 179.191 270.465 179.461C269.113 180.459 267.63 181.384 266.033 182.225C264.488 183.087 262.943 183.945 261.45 184.836C258.488 186.623 255.615 188.524 253.665 190.794C252.674 191.919 252.045 193.156 251.813 194.435C251.539 195.713 251.562 197.01 251.88 198.284L251.985 198.758C252.038 198.914 252.105 199.07 252.165 199.232L252.533 200.18L253.073 201.085L253.343 201.535L253.688 201.967L254.393 202.825C254.663 203.095 254.97 203.355 255.255 203.621C255.833 204.152 256.483 204.65 257.198 205.109C257.544 205.344 257.918 205.563 258.315 205.763L259.478 206.389C260.34 206.735 261.165 207.119 262.05 207.437C262.935 207.754 263.865 208.034 264.818 208.266C265.77 208.498 266.738 208.74 267.72 208.901C271.689 209.567 275.788 209.867 279.893 209.792L282.968 209.717C283.988 209.655 285.008 209.555 286.02 209.475C287.032 209.387 288.034 209.258 289.02 209.091C289.515 209.015 290.025 208.953 290.52 208.859L291.968 208.536C295.869 207.716 299.345 206.241 302.025 204.27C302.355 204.024 302.618 203.744 302.918 203.483C303.231 203.227 303.51 202.954 303.75 202.668L304.5 201.81C304.728 201.52 304.926 201.221 305.093 200.914C305.84 199.701 306.285 198.422 306.413 197.122C306.55 195.825 306.403 194.522 305.978 193.25C305.489 191.976 304.657 190.766 303.518 189.671V189.671ZM303.518 189.671C304.672 190.754 305.527 191.953 306.045 193.217C306.491 194.492 306.657 195.8 306.54 197.103C306.425 198.409 305.993 199.696 305.258 200.919C305.099 201.23 304.903 201.532 304.673 201.824L303.923 202.697C303.682 202.985 303.406 203.261 303.098 203.521C302.798 203.787 302.535 204.071 302.198 204.322C299.527 206.342 296.026 207.856 292.08 208.697L290.618 209.025C290.123 209.119 289.613 209.181 289.118 209.262C288.131 209.429 287.129 209.561 286.118 209.655C285.09 209.735 284.07 209.84 283.043 209.901L279.945 209.987C275.805 210.068 271.668 209.772 267.66 209.11C266.67 208.925 265.703 208.683 264.72 208.47C263.738 208.257 262.845 207.911 261.908 207.631C260.97 207.351 260.16 206.925 259.283 206.574L258.098 205.934C257.689 205.732 257.305 205.51 256.95 205.27C256.22 204.8 255.553 204.293 254.955 203.754C254.663 203.483 254.355 203.218 254.078 202.943L253.328 202.066L252.968 201.63L252.69 201.156L252.143 200.237L251.753 199.289C251.693 199.127 251.618 198.971 251.565 198.815L251.46 198.341C251.127 197.041 251.096 195.717 251.37 194.411C251.608 193.095 252.25 191.822 253.26 190.662C254.257 189.51 255.452 188.43 256.823 187.443C258.171 186.447 259.603 185.498 261.113 184.599C262.613 183.699 264.158 182.836 265.695 181.969C267.259 181.141 268.712 180.232 270.038 179.253C270.339 179.026 270.552 178.758 270.66 178.47C270.705 178.172 270.705 177.831 270.72 177.522C270.72 176.873 270.72 176.224 270.72 175.574C270.72 174.276 270.72 172.972 270.638 171.673C270.555 170.375 270.51 169.076 270.368 167.782C270.311 167.146 270.194 166.513 270.015 165.886C270.015 165.805 269.948 165.739 269.918 165.677C269.87 165.625 269.809 165.579 269.738 165.54C269.553 165.441 269.357 165.351 269.153 165.27C268.719 165.105 268.271 164.956 267.81 164.824C266.886 164.549 265.94 164.306 264.975 164.094C264.025 163.861 263.028 163.714 262.013 163.658C261.855 163.644 261.704 163.61 261.568 163.559C261.431 163.508 261.312 163.44 261.218 163.359C261.118 163.276 261.051 163.179 261.023 163.076C260.994 162.973 261.004 162.867 261.053 162.767C261.102 162.669 261.184 162.579 261.292 162.503C261.401 162.427 261.534 162.367 261.683 162.326C261.952 162.258 262.241 162.229 262.53 162.241H265.62H277.98H284.16H289.56C289.851 162.23 290.141 162.27 290.4 162.354C290.541 162.402 290.662 162.47 290.754 162.552C290.847 162.634 290.908 162.729 290.933 162.828C290.957 162.927 290.946 163.028 290.899 163.123C290.852 163.219 290.771 163.306 290.663 163.378C290.451 163.516 290.169 163.601 289.868 163.62C289.614 163.618 289.361 163.64 289.118 163.686C288.671 163.797 288.294 163.997 288.045 164.255C287.772 164.519 287.562 164.806 287.423 165.108C287.165 165.727 287.049 166.365 287.078 167.004L286.965 168.943L286.793 168.834H299.648C300.769 168.83 301.847 169.106 302.648 169.602C303.44 170.073 304.12 170.614 304.665 171.209C305.743 172.386 306.63 173.63 307.313 174.92C308.018 176.205 308.61 177.508 309.128 178.826C309.383 179.48 309.623 180.144 309.878 180.807L310.193 181.803C310.337 182.134 310.38 182.48 310.32 182.822C310.07 183.485 309.65 184.117 309.075 184.694C308.543 185.287 307.95 185.851 307.343 186.405C306.158 187.538 304.853 188.609 303.518 189.671Z" fill="#263238"/>
<path d="M286.988 178.433C286.883 177.892 286.86 177.352 286.823 176.807L286.763 175.176V171.92V171.887H286.815L299.708 171.787H299.79L299.835 171.816L300.263 172.086C300.383 172.185 300.488 172.29 300.6 172.389C300.812 172.589 301.007 172.797 301.185 173.01C301.53 173.437 301.83 173.873 302.123 174.309C302.685 175.19 303.18 176.086 303.623 176.987C304.065 177.887 304.515 178.793 304.89 179.708C305.265 180.622 305.64 181.547 305.865 182.49V182.533V182.571C305.543 183.011 305.165 183.435 304.733 183.836C304.32 184.234 303.885 184.623 303.443 185.012C302.563 185.78 301.658 186.538 300.728 187.287L300.6 187.386L300.465 187.292C298.323 185.744 296.031 184.281 293.603 182.912C292.395 182.22 291.173 181.537 289.988 180.831C289.395 180.476 288.81 180.12 288.27 179.731C287.676 179.374 287.235 178.927 286.988 178.433V178.433ZM286.988 178.433C287.237 178.923 287.678 179.367 288.27 179.722C288.818 180.106 289.41 180.461 290.003 180.812C291.203 181.509 292.433 182.187 293.648 182.864C296.133 184.196 298.49 185.62 300.705 187.13H300.443C301.343 186.372 302.218 185.604 303.068 184.827C303.488 184.433 303.908 184.04 304.305 183.647C304.716 183.261 305.077 182.855 305.385 182.433V182.514C305.13 181.599 304.763 180.684 304.373 179.774C303.983 178.864 303.57 177.963 303.128 177.063C302.685 176.162 302.198 175.276 301.628 174.404C301.358 173.968 301.058 173.541 300.735 173.119C300.441 172.707 300.04 172.329 299.55 172L299.678 172.029L286.785 171.929L286.838 171.896C286.808 172.983 286.808 174.069 286.838 175.152V176.783C286.875 177.347 286.89 177.892 286.988 178.433Z" fill="#263238"/>
<path d="M278.393 207.612C258.473 207.612 253.643 199.431 255.615 193.695C257.588 187.96 274.365 181.533 274.013 179.67C273.953 179.305 273.908 172 273.885 171.237H283.808C283.808 172.034 283.883 179.343 283.95 179.67C284.348 181.528 299.183 187.946 301.2 193.695C303.218 199.445 298.313 207.612 278.393 207.612Z" fill="#FF8473"/>
<path d="M257.798 40.9491C257.376 43.579 255.803 46.0827 253.256 48.179C250.708 50.2753 247.286 51.8813 243.374 52.8167C239.462 53.7521 235.215 53.9798 231.109 53.4743C227.004 52.9689 223.203 51.7502 220.133 49.9551L208.883 51.0026L214.523 44.8406C213.11 42.6716 212.579 40.3137 212.978 37.9818C213.664 34.2574 216.646 30.8541 221.277 28.51C225.908 26.1659 231.814 25.07 237.715 25.4598C243.616 25.8497 249.036 27.6939 252.799 30.5925C256.563 33.4912 258.367 37.2106 257.82 40.9443L257.798 40.9491Z" fill="white"/>
<path d="M257.797 40.949C257.362 43.5752 255.789 46.0746 253.252 48.1727C252.617 48.6939 251.933 49.1908 251.205 49.6611C250.454 50.1149 249.66 50.5392 248.827 50.9314C247.164 51.7212 245.334 52.3594 243.39 52.8274C241.444 53.3089 239.402 53.6168 237.322 53.7422C236.28 53.7999 235.233 53.8125 234.187 53.7801C233.141 53.7646 232.097 53.6965 231.067 53.5763C226.911 53.0913 223.049 51.8851 219.915 50.0924L220.185 50.1446L208.935 51.2395L208.117 51.3201L208.53 50.8461L214.14 44.6841V44.9258C212.813 42.886 212.244 40.681 212.476 38.4803C212.709 36.2797 213.737 34.1421 215.482 32.2321C217.24 30.3364 219.653 28.7161 222.54 27.4921C225.428 26.285 228.71 25.5062 232.142 25.214C235.573 24.9218 239.065 25.1237 242.355 25.8047C245.615 26.5054 248.587 27.6567 251.055 29.1748C253.515 30.6871 255.4 32.5325 256.568 34.572C257.736 36.6115 258.156 38.7919 257.797 40.949V40.949ZM257.797 40.949C258.156 38.8039 257.73 36.6354 256.554 34.6105C255.378 32.5856 253.483 30.7582 251.014 29.2689C248.545 27.7795 245.569 26.668 242.314 26.0198C239.058 25.3715 235.611 25.2039 232.237 25.5297C228.893 25.8485 225.708 26.6444 222.922 27.8571C220.165 29.0787 217.861 30.6655 216.172 32.507C214.509 34.3543 213.53 36.4156 213.307 38.5363C213.099 40.6536 213.642 42.7736 214.897 44.741L214.98 44.8689L214.867 44.9827L209.197 51.1447L208.792 50.7702L220.087 49.7701H220.245L220.357 49.8365C223.368 51.6188 227.106 52.8352 231.15 53.3488C232.159 53.4776 233.182 53.5568 234.21 53.5858C237.306 53.7209 240.411 53.4331 243.315 52.7421C245.262 52.2992 247.095 51.6762 248.752 50.8935C250.441 50.1312 251.936 49.2105 253.185 48.1632C255.749 46.0746 257.346 43.5772 257.797 40.949Z" fill="#263238"/>
<path d="M244.935 42.1529C242.408 44.3017 239.177 46.0802 235.462 47.3669C231.751 46.0793 228.522 44.3008 225.997 42.1529C222.667 39.3658 222.832 35.0002 227.595 34.0569C232.845 33.0141 235.462 38.0291 235.462 38.0291C235.462 38.0291 238.095 32.981 243.337 34.0569C248.085 35.0334 248.25 39.3658 244.935 42.1529Z" fill="#FF8473"/>
</svg>
