<svg width="36" height="44" viewBox="0 0 36 44" fill="none" xmlns="http://www.w3.org/2000/svg">
<path d="M27 14.6666H30C30.3978 14.6666 30.7794 14.8597 31.0607 15.2036C31.342 15.5474 31.5 16.0137 31.5 16.4999V38.4999C31.5 38.9861 31.342 39.4525 31.0607 39.7963C30.7794 40.1401 30.3978 40.3333 30 40.3333H6C5.60218 40.3333 5.22064 40.1401 4.93934 39.7963C4.65804 39.4525 4.5 38.9861 4.5 38.4999V16.4999C4.5 16.0137 4.65804 15.5474 4.93934 15.2036C5.22064 14.8597 5.60218 14.6666 6 14.6666H9V12.8333C9 9.91587 9.94821 7.11798 11.636 5.05508C13.3239 2.99218 15.6131 1.83325 18 1.83325C20.3869 1.83325 22.6761 2.99218 24.364 5.05508C26.0518 7.11798 27 9.91587 27 12.8333V14.6666ZM16.5 28.8419V32.9999H19.5V28.8419C20.0719 28.4383 20.5189 27.8154 20.7716 27.0697C21.0244 26.3239 21.0687 25.4971 20.8978 24.7175C20.7269 23.9378 20.3502 23.2489 19.8263 22.7575C19.3024 22.2662 18.6604 21.9998 18 21.9998C17.3396 21.9998 16.6976 22.2662 16.1737 22.7575C15.6498 23.2489 15.2731 23.9378 15.1022 24.7175C14.9313 25.4971 14.9756 26.3239 15.2284 27.0697C15.4811 27.8154 15.9281 28.4383 16.5 28.8419ZM24 14.6666V12.8333C24 10.8883 23.3679 9.02307 22.2426 7.6478C21.1174 6.27254 19.5913 5.49992 18 5.49992C16.4087 5.49992 14.8826 6.27254 13.7574 7.6478C12.6321 9.02307 12 10.8883 12 12.8333V14.6666H24Z" fill="#F2784B" fill-opacity="0.82"/>
</svg>
