<svg width="172" height="173" viewBox="0 0 172 173" fill="none" xmlns="http://www.w3.org/2000/svg">
<path d="M66.5035 67.1949C65.0546 65.5997 62.9917 64.6655 60.844 64.632C56.5242 64.5763 52.9506 68.0403 52.8773 72.3818C52.8538 73.7813 53.9627 74.9349 55.3538 74.9585C55.3686 74.9589 55.3827 74.9589 55.3975 74.9589C56.7691 74.9589 57.8925 73.8523 57.9157 72.4673C57.9415 70.9167 59.2087 69.6726 60.7651 69.6997C61.5421 69.7118 62.2587 70.0362 62.7831 70.6133C63.7217 71.6469 65.3157 71.7192 66.3426 70.7752C67.3699 69.8314 67.4421 68.2282 66.5035 67.1949Z" fill="#B6B6B6"/>
<path d="M79.908 75.454C79.1357 73.6281 77.6323 72.187 75.7823 71.5C72.0622 70.1198 67.915 72.038 66.5367 75.7753C66.0526 77.0877 66.7181 78.546 68.0225 79.0329C68.3114 79.1407 68.6074 79.1917 68.8983 79.1917C69.9219 79.1917 70.884 78.5599 71.261 77.5381C71.6748 76.4156 72.9222 75.8412 74.0375 76.2551C74.5982 76.4633 75.0362 76.8833 75.2704 77.4374C75.8149 78.7251 77.2951 79.3259 78.575 78.7778C79.8559 78.2301 80.4522 76.742 79.908 75.454Z" fill="#B6B6B6"/>
<path d="M96.1471 53.0096C95.1621 52.0206 93.5667 52.0226 92.5841 53.0133L90.209 55.4069C89.2261 56.3976 89.2277 58.0022 90.2127 58.9906C90.7042 59.4842 91.3482 59.7309 91.9922 59.7309C92.6379 59.7309 93.2835 59.4829 93.7757 58.9868L96.1508 56.5932C97.1337 55.6025 97.132 53.9979 96.1471 53.0096Z" fill="#B6B6B6"/>
<path d="M80.4718 85.7256H77.1138C75.722 85.7256 74.5942 86.8602 74.5942 88.2598C74.5942 89.6593 75.722 90.7939 77.1138 90.7939H80.4718C81.8635 90.7939 82.9913 89.6593 82.9913 88.2598C82.9913 86.8602 81.8635 85.7256 80.4718 85.7256Z" fill="#B6B6B6"/>
<path d="M106.219 85.7256H102.861C101.469 85.7256 100.341 86.8602 100.341 88.2598C100.341 89.6593 101.469 90.7939 102.861 90.7939H106.219C107.611 90.7939 108.739 89.6593 108.739 88.2598C108.739 86.8602 107.611 85.7256 106.219 85.7256Z" fill="#B6B6B6"/>
<path d="M171.919 131.419L171.263 127.857C170.845 125.581 168.869 123.929 166.564 123.929C166.275 123.929 165.984 123.956 165.697 124.009L152.34 126.477L158.389 122.41C159.974 121.344 160.775 119.438 160.43 117.547C160.334 117.029 160.154 116.532 159.893 116.066L158.062 112.806C157.435 111.686 156.365 110.854 155.131 110.524C154.526 110.362 153.894 110.326 153.277 110.406C153.951 106.667 154.298 102.849 154.298 98.9611C154.298 97.2362 153.267 95.7518 151.794 95.0926C153.719 90.4879 153.85 85.2161 151.947 80.3884C151.793 79.9957 151.564 79.6453 151.267 79.3466C150.973 79.0507 150.629 78.8219 150.238 78.6641C147.958 77.7508 145.562 77.2879 143.116 77.2879C142.803 77.2879 142.492 77.296 142.181 77.3109C141.832 70.2378 136.012 64.5914 128.907 64.5914C127.971 64.5914 127.059 64.6914 126.178 64.8779C126.79 61.1949 126.43 57.3419 125.004 53.7245C124.85 53.3268 124.62 52.97 124.307 52.6504C124.006 52.3476 123.653 52.1141 123.262 51.9577C120.806 50.9738 118.224 50.475 115.589 50.475C111.62 50.475 107.823 51.5975 104.545 53.6843C103.347 50.1949 101.372 46.9191 98.6127 44.1372C97.8044 43.3229 96.7294 42.8742 95.5856 42.8742C94.4417 42.8742 93.3667 43.3229 92.5574 44.1379L80.3586 56.4357C78.1011 54.4104 75.1304 53.1998 71.9061 53.1998C71.1744 53.1998 70.4357 53.2643 69.7104 53.3914C67.0824 53.8516 64.664 55.1453 62.81 57.0402C60.4326 55.8863 57.7091 55.4927 55.0918 55.9509C54.516 56.0516 53.9574 56.1935 53.4152 56.3665V46.89C53.4152 40.364 48.2004 35.0453 41.7498 34.9331V29.5587C43.7244 29.215 45.2321 27.484 45.2321 25.4013V13.2241C45.2321 10.8954 43.3485 9.00049 41.0329 9.00049H20.5438C18.2282 9.00049 16.3446 10.8954 16.3446 13.2241V25.4013C16.3446 27.484 17.8523 29.215 19.8269 29.5587V34.9325C13.3763 35.0443 8.1619 40.363 8.1619 46.8893V120.852C3.1316 125.421 0 131.797 0 138.847C0 152.716 12.1021 164 26.978 164L127.822 163.97C131.264 163.969 134.501 162.447 136.702 159.796C138.847 157.215 139.758 153.863 139.233 150.557L159.375 154.198C159.654 154.248 159.94 154.274 160.223 154.274C161.227 154.274 162.19 153.964 163.005 153.378C164.052 152.625 164.762 151.46 164.951 150.181L165.496 146.499C165.575 145.972 165.566 145.441 165.47 144.92C165.124 143.037 163.698 141.544 161.839 141.115L154.74 139.477L168.083 137.011C169.342 136.779 170.433 136.068 171.158 135.01C171.881 133.955 172.151 132.68 171.919 131.419ZM143.116 82.3555C144.633 82.3555 146.124 82.5971 147.558 83.0732C148.839 86.9975 148.359 91.2302 146.353 94.7267H139.566L141.731 92.5432C142.714 91.5525 142.712 89.9479 141.727 88.9593C140.742 87.9706 139.146 87.9723 138.164 88.9633L137.018 90.1185C136.481 88.3396 135.543 86.7467 134.31 85.4401C136.811 83.4429 139.881 82.3555 143.116 82.3555ZM128.907 69.659C133.457 69.659 137.159 73.3934 137.159 77.9836C137.159 78.0687 137.155 78.1529 137.153 78.2374C134.497 79.1061 132.049 80.5573 129.961 82.5282C129.629 82.4015 129.292 82.2839 128.946 82.1876C128.209 78.183 125.526 74.973 121.981 73.4738C123.452 71.1816 126.005 69.659 128.907 69.659ZM115.589 55.5427C117.3 55.5427 118.982 55.8211 120.602 56.3719C121.905 60.2671 121.639 64.4511 119.979 68.0753C118.615 69.3252 117.508 70.8558 116.752 72.5764C116.302 72.6027 115.852 72.6527 115.407 72.7304C113.433 73.0761 111.592 73.9377 110.052 75.1872C109.526 74.2209 108.883 73.3292 108.146 72.5264L113.924 66.7018C114.907 65.7111 114.905 64.1065 113.919 63.1182C112.934 62.1295 111.339 62.1312 110.356 63.1222L104.041 69.4884C102.839 68.917 101.541 68.5197 100.176 68.3338C100.765 65.3097 102.224 62.4603 104.481 60.1849C107.451 57.1912 111.395 55.5427 115.589 55.5427ZM96.2826 94.7267H94.0987C93.7309 93.7853 92.8215 93.118 91.7549 93.118C90.6883 93.118 89.7789 93.7857 89.4111 94.7267H86.8418C87.4385 93.7495 87.3179 92.4547 86.4757 91.6093C85.4907 90.6207 83.8953 90.6223 82.9124 91.613L80.5377 94.0066C80.3243 94.2215 80.1604 94.4665 80.0398 94.7267H74.9117C72.9912 91.7624 71.8191 88.2635 71.6804 84.4995H111.652C111.513 88.2635 110.341 91.7624 108.421 94.7267H103.084C102.964 94.4665 102.799 94.2212 102.586 94.0063L100.212 91.6127C99.2288 90.6223 97.6341 90.6196 96.6491 91.6086C95.8063 92.454 95.6857 93.7492 96.2826 94.7267ZM90.4229 79.4311C91.3726 75.8911 94.5832 73.2788 98.388 73.2788C102.193 73.2788 105.404 75.8914 106.353 79.4311H90.4229ZM95.5752 48.2706C97.9717 50.8758 99.5563 53.9688 100.333 57.22C99.0471 58.6259 97.9784 60.1795 97.1356 61.8328C96.753 61.597 96.3045 61.4588 95.8231 61.4588H92.4657C91.0743 61.4588 89.9462 62.5934 89.9462 63.993C89.9462 65.3925 91.0743 66.5271 92.4657 66.5271H95.4109C95.2453 67.2269 95.1166 67.9351 95.0232 68.6487C94.0228 68.913 93.0674 69.2894 92.1731 69.7685C90.4938 66.8535 87.7129 64.6812 84.4181 63.8098C84.417 63.8027 84.4157 63.7956 84.4144 63.7885C84.2168 62.6417 83.8722 61.5537 83.4022 60.5424L95.5752 48.2706ZM50.0296 71.1376C49.8818 70.722 49.7699 70.2956 49.6964 69.8678C48.9738 65.6777 51.7822 61.6744 55.9555 60.9435C56.3956 60.8665 56.8427 60.8273 57.2842 60.8273C58.944 60.8273 60.5303 61.3598 61.871 62.367C62.4257 62.784 63.1271 62.9526 63.8097 62.8337C64.4923 62.7144 65.096 62.318 65.479 61.7372C66.6618 59.9427 68.4715 58.752 70.5745 58.3837C71.0155 58.3063 71.4637 58.2674 71.9061 58.2674C75.639 58.2674 78.8116 60.9537 79.4492 64.6552C79.5225 65.0793 79.5601 65.5212 79.5608 65.9689C79.5631 67.2806 80.5605 68.374 81.8599 68.4889C84.6767 68.7379 87.0746 70.521 88.1862 73.0328C86.6981 74.8294 85.6664 77.023 85.2747 79.4311H70.906C69.1195 79.4311 67.5866 80.5404 66.9474 82.1102C63.7862 79.9447 60.0607 78.778 56.1564 78.778C53.7105 78.778 51.3142 79.2412 49.0326 80.1549C48.6456 80.3103 48.2995 80.5397 48.0046 80.8364C47.7056 81.1371 47.4762 81.4895 47.3257 81.8761C46.7458 83.3469 46.3592 84.859 46.1502 86.3805C45.2472 85.3465 44.611 84.0609 44.3624 82.6181C43.7698 79.1797 45.5593 75.7562 48.7127 74.2925C49.8979 73.7424 50.4694 72.3733 50.0296 71.1376ZM57.5405 94.0337L58.2278 94.7267H52.1766C50.8181 91.5566 50.6118 87.9483 51.7147 84.564C53.1505 84.0872 54.641 83.846 56.1564 83.846C59.9528 83.846 63.5242 85.3384 66.212 88.048C66.5694 88.4085 66.9023 88.7862 67.2151 89.1765C67.6421 91.1207 68.2982 92.9781 69.1434 94.7263H65.3463L61.1078 90.4534C60.1245 89.463 58.5291 89.4603 57.5448 90.4493C56.5595 91.4383 56.5575 93.043 57.5405 94.0337ZM46.8107 94.7267H37.8288C38.2292 92.2719 39.6972 90.1794 41.735 88.9454C42.9414 90.571 44.5159 91.8854 46.33 92.7757C46.4583 93.4332 46.6158 94.085 46.8107 94.7267ZM21.3837 14.0688H40.1931V24.5566H21.3837V14.0688ZM36.7108 29.6249V34.9274H24.8663V29.6249H36.7108ZM13.2013 57.1666H29.5624C30.9542 57.1666 32.0819 56.032 32.0819 54.6324C32.0819 53.2329 30.9542 52.0982 29.5624 52.0982H13.2013V46.8893C13.2013 43.0881 16.2664 39.9957 20.0339 39.9957H41.5432C45.3111 39.9957 48.3761 43.0881 48.3761 46.8893V52.0982H43.6717C42.2799 52.0982 41.1522 53.2329 41.1522 54.6324C41.1522 56.032 42.2799 57.1666 43.6717 57.1666H48.3761V59.4159C45.4894 62.2626 43.9902 66.4372 44.7306 70.7315C44.7319 70.7399 44.7336 70.7487 44.7349 70.7575C40.6929 73.5468 38.5393 78.5056 39.3969 83.4838C39.447 83.7743 39.5098 84.0602 39.5783 84.343C38.3196 85.0411 37.1891 85.9426 36.2203 86.9975H13.2013V57.1666ZM13.2009 92.0655H33.2946C33.0272 92.9196 32.8384 93.8086 32.7464 94.7267H32.3218C30.0028 94.7267 28.1158 96.626 28.1158 98.9604C28.1158 102.984 28.4877 106.935 29.2083 110.799C28.4844 110.741 27.7419 110.71 26.9868 110.71C23.9398 110.71 21.0367 111.196 18.8131 112.079C15.4117 113.43 14.4715 115.348 14.2662 116.675C13.9057 116.856 13.5517 117.046 13.2009 117.241V92.0655ZM45.1051 123.197C46.0125 123.927 46.5671 124.548 46.8886 124.995C46.8584 124.996 46.8268 124.996 46.7949 124.996C45.3688 124.996 42.8067 124.418 39.8931 122.796C38.8083 122.191 37.8089 121.508 37.0027 120.822C36.0627 120.02 34.6844 120.021 33.7451 120.822C32.9389 121.509 31.9398 122.192 30.8561 122.795C27.9418 124.418 25.3796 124.996 23.9539 124.996C23.9213 124.996 23.8901 124.996 23.8595 124.995C24.1807 124.548 24.7353 123.927 25.643 123.196C26.4362 122.558 26.7704 121.502 26.4906 120.52C26.2104 119.537 25.3712 118.82 24.3617 118.701C21.903 118.411 20.3483 117.782 19.6203 117.323C20.5324 116.752 22.8383 115.778 26.9878 115.778C30.4244 115.778 32.9362 116.505 34.1409 117.185C34.9071 117.618 35.8414 117.618 36.6076 117.186C37.813 116.505 40.3251 115.778 43.7617 115.778C47.9115 115.778 50.2171 116.753 51.1288 117.324C50.4012 117.782 48.8461 118.411 46.3867 118.701C45.3772 118.821 44.5377 119.538 44.2579 120.52C43.9771 121.503 44.3113 122.559 45.1051 123.197ZM40.0651 154.041L40.1518 154.511C40.4514 156.139 41.0833 157.633 41.9661 158.931H26.978C14.881 158.931 5.03904 149.922 5.03904 138.847C5.03904 131.279 9.63734 124.678 16.4085 121.255C17.1862 121.839 18.1557 122.342 19.3059 122.749C18.8497 123.532 18.5319 124.375 18.457 125.254C18.3576 126.422 18.713 127.532 19.4588 128.378C20.4441 129.497 21.9564 130.065 23.9539 130.065C26.6159 130.065 30.1086 129.005 33.2966 127.23C34.0307 126.821 34.7247 126.39 35.3744 125.939C36.0238 126.389 36.7178 126.821 37.4522 127.23C40.6402 129.005 44.1329 130.064 46.7949 130.065H46.7952C48.792 130.065 50.3044 129.497 51.2894 128.379C52.0355 127.532 52.3913 126.422 52.2915 125.254C52.2166 124.375 51.8988 123.532 51.4426 122.749C52.5928 122.342 53.5627 121.839 54.3404 121.255C59.7103 123.97 63.7116 128.684 65.1383 134.293L47.3186 141.102C42.1025 143.096 39.0519 148.537 40.0651 154.041ZM132.835 156.547C131.593 158.043 129.764 158.901 127.819 158.902L125.175 158.903L123.523 149.93C123.269 148.554 121.955 147.644 120.586 147.9C119.218 148.154 118.314 149.477 118.568 150.853L120.05 158.904L111.381 158.908L110.264 152.84C110.011 151.464 108.696 150.555 107.328 150.81C105.96 151.065 105.056 152.387 105.309 153.763L106.257 158.91L86.092 158.918L84.5743 150.677C84.3203 149.301 83.0068 148.392 81.6378 148.647C80.2696 148.902 79.3659 150.224 79.6192 151.601L80.9673 158.92L51.5245 158.931C51.5239 158.931 51.5232 158.931 51.5225 158.931C48.3741 158.931 45.6759 156.684 45.1055 153.587L45.0188 153.117C44.4494 150.024 46.1687 146.963 49.1071 145.84L59.0095 142.057L59.7472 146.061C59.972 147.281 61.0309 148.134 62.2214 148.134C62.3739 148.134 62.5285 148.12 62.6837 148.091C64.0516 147.836 64.9553 146.514 64.7016 145.138L63.797 140.227L78.4958 134.611C79.7966 134.114 80.4507 132.65 79.9565 131.342C79.4623 130.033 78.0054 129.376 76.7066 129.873L69.8666 132.486C67.9478 125.653 63.0183 119.945 56.4813 116.675C56.276 115.348 55.3357 113.43 51.9347 112.079C49.7112 111.195 46.808 110.709 43.7611 110.709C41.6641 110.709 39.6616 110.942 37.8939 111.366V109.835C37.8939 108.436 36.7662 107.301 35.3744 107.301C34.7862 107.301 34.2467 107.505 33.8177 107.845C33.4203 105.202 33.1979 102.517 33.1609 99.7943H115.226C116.618 99.7943 117.746 98.6597 117.746 97.2602C117.746 95.8606 116.618 94.726 115.226 94.726H114.195C115.8 91.4025 116.706 87.6763 116.706 83.7382C116.706 81.5024 115.005 79.6605 112.838 79.4514C113.781 78.5563 114.959 77.9529 116.272 77.7227C116.657 77.6555 117.047 77.6214 117.433 77.6214C120.685 77.6214 123.449 79.9619 124.005 83.1861C124.069 83.5594 124.102 83.9446 124.102 84.3315C124.104 85.6439 125.102 86.738 126.401 86.8529C129.412 87.1188 131.876 89.3965 132.392 92.3915C132.529 93.1879 132.512 93.9739 132.375 94.726H129.671C128.28 94.726 127.152 95.8606 127.152 97.2602C127.152 98.6597 128.28 99.7943 129.671 99.7943H149.254C149.191 104.443 148.596 108.984 147.486 113.39L133.831 121.497C132.996 118.574 131.055 116.094 128.381 114.588C125.381 112.9 121.816 112.636 118.602 113.864L90.48 124.61C89.1789 125.107 88.5252 126.57 89.0194 127.879C89.5135 129.187 90.9702 129.844 92.2692 129.348L95.9739 127.932L97.1242 134.179C97.3489 135.399 98.4078 136.252 99.5987 136.252C99.7508 136.252 99.9054 136.238 100.061 136.209C101.429 135.955 102.333 134.632 102.079 133.256L100.762 126.103L120.39 118.603C122.209 117.908 124.224 118.057 125.92 119.012C127.612 119.964 128.784 121.606 129.137 123.516L134.234 151.194C134.585 153.103 134.075 155.054 132.835 156.547ZM141.825 136.71C140.649 136.928 139.788 137.945 139.761 139.147C139.735 140.349 140.552 141.404 141.717 141.673L160.475 146L160.007 149.163L138.26 145.232L134.861 126.772L153.802 115.525L155.38 118.336L139.404 129.077C138.41 129.746 138.02 131.023 138.469 132.137C138.919 133.251 140.084 133.894 141.259 133.677L166.356 129.04L166.915 132.074L141.825 136.71Z" fill="#B6B6B6"/>
</svg>
