<svg width="32" height="32" viewBox="0 0 32 32" fill="none" xmlns="http://www.w3.org/2000/svg">
<g clip-path="url(#clip0_577_1260)">
<path d="M27.2266 13.5734L16.9466 3.06676C16.8226 2.94179 16.6752 2.8426 16.5127 2.77491C16.3502 2.70721 16.1759 2.67236 15.9999 2.67236C15.8239 2.67236 15.6496 2.70721 15.4871 2.77491C15.3247 2.8426 15.1772 2.94179 15.0532 3.06676L4.77324 13.5868C4.52449 13.8375 4.32804 14.1352 4.19528 14.4625C4.06252 14.7898 3.99612 15.1402 3.99991 15.4934V26.6668C3.99888 27.3493 4.25961 28.0063 4.72841 28.5024C5.19721 28.9984 5.83839 29.2959 6.51991 29.3334H25.4799C26.1614 29.2959 26.8026 28.9984 27.2714 28.5024C27.7402 28.0063 28.0009 27.3493 27.9999 26.6668V15.4934C28.001 14.7773 27.7237 14.0889 27.2266 13.5734ZM13.3332 26.6668V18.6668H18.6666V26.6668H13.3332ZM25.3332 26.6668H21.3332V17.3334C21.3332 16.9798 21.1928 16.6407 20.9427 16.3906C20.6927 16.1406 20.3535 16.0001 19.9999 16.0001H11.9999C11.6463 16.0001 11.3071 16.1406 11.0571 16.3906C10.8071 16.6407 10.6666 16.9798 10.6666 17.3334V26.6668H6.66658V15.4401L15.9999 5.90676L25.3332 15.4934V26.6668Z" fill="#999999"/>
</g>
<defs>
<clipPath id="clip0_577_1260">
<rect width="32" height="32" fill="white"/>
</clipPath>
</defs>
</svg>
