<svg width="32" height="32" viewBox="0 0 32 32" fill="none" xmlns="http://www.w3.org/2000/svg">
<g clip-path="url(#clip0_577_1259)">
<path d="M20.0001 21.3335H12.0001C11.6465 21.3335 11.3073 21.474 11.0573 21.724C10.8072 21.9741 10.6667 22.3132 10.6667 22.6668C10.6667 23.0205 10.8072 23.3596 11.0573 23.6096C11.3073 23.8597 11.6465 24.0002 12.0001 24.0002H20.0001C20.3537 24.0002 20.6928 23.8597 20.9429 23.6096C21.1929 23.3596 21.3334 23.0205 21.3334 22.6668C21.3334 22.3132 21.1929 21.9741 20.9429 21.724C20.6928 21.474 20.3537 21.3335 20.0001 21.3335Z" fill="#999999"/>
<path d="M12.0001 18.6667H16.0001C16.3537 18.6667 16.6928 18.5262 16.9429 18.2761C17.1929 18.0261 17.3334 17.687 17.3334 17.3333C17.3334 16.9797 17.1929 16.6406 16.9429 16.3905C16.6928 16.1405 16.3537 16 16.0001 16H12.0001C11.6465 16 11.3073 16.1405 11.0573 16.3905C10.8072 16.6406 10.6667 16.9797 10.6667 17.3333C10.6667 17.687 10.8072 18.0261 11.0573 18.2761C11.3073 18.5262 11.6465 18.6667 12.0001 18.6667Z" fill="#999999"/>
<path d="M26.3199 11.1067L19.0666 3.10674C18.9419 2.96862 18.7897 2.85812 18.6198 2.78234C18.4499 2.70656 18.266 2.66718 18.0799 2.66674H8.74659C8.30358 2.66146 7.86388 2.74349 7.45259 2.90815C7.04129 3.07281 6.66646 3.31688 6.34949 3.62642C6.03253 3.93595 5.77964 4.30489 5.60528 4.71217C5.43091 5.11944 5.33847 5.55708 5.33325 6.00008V26.0001C5.33847 26.4431 5.43091 26.8807 5.60528 27.288C5.77964 27.6953 6.03253 28.0642 6.34949 28.3737C6.66646 28.6833 7.04129 28.9273 7.45259 29.092C7.86388 29.2567 8.30358 29.3387 8.74659 29.3334H23.2533C23.6963 29.3387 24.136 29.2567 24.5473 29.092C24.9585 28.9273 25.3334 28.6833 25.6503 28.3737C25.9673 28.0642 26.2202 27.6953 26.3946 27.288C26.5689 26.8807 26.6614 26.4431 26.6666 26.0001V12.0001C26.6657 11.6696 26.5422 11.3513 26.3199 11.1067ZM18.6666 6.66674L22.3199 10.6667H19.6533C19.5136 10.6583 19.3771 10.6222 19.2516 10.5604C19.1261 10.4986 19.0141 10.4125 18.9223 10.307C18.8304 10.2015 18.7605 10.0787 18.7166 9.94591C18.6727 9.8131 18.6557 9.67287 18.6666 9.53341V6.66674ZM23.2533 26.6667H8.74659C8.65375 26.6721 8.56076 26.6592 8.47295 26.6286C8.38514 26.598 8.30423 26.5503 8.23487 26.4884C8.1655 26.4265 8.10904 26.3515 8.06873 26.2677C8.02841 26.1839 8.00503 26.0929 7.99992 26.0001V6.00008C8.00503 5.90723 8.02841 5.8163 8.06873 5.7325C8.10904 5.6487 8.1655 5.57369 8.23487 5.51175C8.30423 5.44982 8.38514 5.40219 8.47295 5.37158C8.56076 5.34098 8.65375 5.32801 8.74659 5.33341H15.9999V9.53341C15.9784 10.5156 16.3463 11.4664 17.0232 12.1783C17.7002 12.8902 18.6312 13.3055 19.6133 13.3334H23.9999V26.0001C23.9948 26.0929 23.9714 26.1839 23.9311 26.2677C23.8908 26.3515 23.8343 26.4265 23.765 26.4884C23.6956 26.5503 23.6147 26.598 23.5269 26.6286C23.4391 26.6592 23.3461 26.6721 23.2533 26.6667Z" fill="#999999"/>
</g>
<defs>
<clipPath id="clip0_577_1259">
<rect width="32" height="32" fill="white"/>
</clipPath>
</defs>
</svg>
