<svg width="32" height="32" viewBox="0 0 32 32" fill="none" xmlns="http://www.w3.org/2000/svg">
<g clip-path="url(#clip0_670_1772)">
<path d="M28.1067 9.33314C27.8764 8.93396 27.5465 8.60131 27.1492 8.36763C26.7519 8.13396 26.3009 8.00723 25.8401 7.99981H8.77341L8.00008 4.98647C7.92195 4.69559 7.74763 4.43973 7.50552 4.26057C7.26341 4.08141 6.96776 3.98949 6.66675 3.99981H4.00008C3.64646 3.99981 3.30732 4.14028 3.05727 4.39033C2.80722 4.64038 2.66675 4.97952 2.66675 5.33314C2.66675 5.68676 2.80722 6.0259 3.05727 6.27595C3.30732 6.526 3.64646 6.66647 4.00008 6.66647H5.65341L9.33341 20.3465C9.41155 20.6374 9.58587 20.8932 9.82798 21.0724C10.0701 21.2515 10.3657 21.3434 10.6667 21.3331H22.6667C22.913 21.3324 23.1542 21.2635 23.3636 21.134C23.5731 21.0046 23.7426 20.8197 23.8534 20.5998L28.2267 11.8531C28.4163 11.4558 28.5045 11.0178 28.4836 10.578C28.4627 10.1383 28.3332 9.71064 28.1067 9.33314ZM21.8401 18.6665H11.6801L9.50675 10.6665H25.8401L21.8401 18.6665Z" fill="#999999"/>
<path d="M10 28C11.1046 28 12 27.1046 12 26C12 24.8954 11.1046 24 10 24C8.89543 24 8 24.8954 8 26C8 27.1046 8.89543 28 10 28Z" fill="#999999"/>
<path d="M23.3333 28C24.4378 28 25.3333 27.1046 25.3333 26C25.3333 24.8954 24.4378 24 23.3333 24C22.2287 24 21.3333 24.8954 21.3333 26C21.3333 27.1046 22.2287 28 23.3333 28Z" fill="#999999"/>
</g>
<defs>
<clipPath id="clip0_670_1772">
<rect width="32" height="32" fill="white"/>
</clipPath>
</defs>
</svg>
